<?xml version="1.0" encoding="UTF-8" standalone="no"?>
<!DOCTYPE svg PUBLIC "-//W3C//DTD SVG 1.1//EN" "http://www.w3.org/Graphics/SVG/1.1/DTD/svg11.dtd">
<svg width="100%" height="100%" viewBox="0 0 179 276" version="1.1" xmlns="http://www.w3.org/2000/svg" xmlns:xlink="http://www.w3.org/1999/xlink" xml:space="preserve" xmlns:serif="http://www.serif.com/" style="fill-rule:evenodd;clip-rule:evenodd;stroke-linejoin:round;stroke-miterlimit:2;">
    <g transform="matrix(3.22188,0,0,3.22188,0,0)">
        <path d="M53.8,26.7L54.3,25.6L53.8,25.4L52.9,25.8L52.6,25.8C52.9,26.3 52.6,26.1 53.3,26.3C52.7,26.9 52.7,26.7 51.9,26.5C51.8,27.4 51.8,27.3 51.4,27.8C51.4,28.1 51.4,27.8 51.7,28.3L52.2,28.8C51.4,28.5 51.7,28.3 51.3,28.6C50.6,28.3 50.9,28.6 51,27.9L49.8,27.7L49,29.6L49.5,29.6C47.7,30.3 45.8,30.7 43.9,30.9L43.9,29.6C43,30 43.9,30.3 43.2,30.9L42.5,31.3L41.5,30.6L44.1,29.3L43.2,28.2C43.6,28.1 43.4,28 43.9,27.7C44.4,27.4 43.9,27.5 44.4,27.5C44.1,26.9 44.2,27.5 44.4,26.8L43.4,27L43.4,26.6C44.9,26.2 47.3,25 49,24.6L49.5,24.1L48.6,23.9L49.6,23.2C49.9,22.8 49.8,23 49.9,22.3L49.9,22C49,21.8 48.2,22 47.9,21.6C47.2,22 47.6,21.6 47.5,22.3C46.7,22 47.2,22.2 45.5,22.3C46.5,21.4 46.4,20 47.1,19.8C46.9,18.3 46.3,18.5 45.4,17.5C44.7,18 44.6,18 44.7,18.9C44,18.6 43.9,18.9 43.7,18.5C42.7,19.1 42,20 41.4,21L41.1,20L39.7,20.2L40.4,20.7C39.6,21.1 39.6,20.5 39.5,21.2L38.5,20.7L38.4,20C38.9,20.2 39.5,20 39.8,19.5L40.1,19.3L38.5,18.9L38.8,18.4C37.8,18.9 38.4,19.3 36.8,19.7C36.8,19.2 36.8,19.5 36.5,19L35,19.7C35.5,18.7 35,18.9 35.4,17.5C35,18 34.3,18.2 33.7,18.2L33.7,18C33.9,17.2 33.9,17.3 34.4,16.9C36.7,17.4 36.4,16.4 38.7,16C38,15.3 37.5,15.7 37.1,14.4C38.4,13.9 39.7,13.2 40.7,12.2C40.7,10.9 41.4,10.4 41.4,9.1L41.7,8.7C42.2,9.5 42.1,9.8 42.9,10.3L43.1,10.3C43.1,9.9 43.1,9.6 42.9,9.2C43.6,8.7 44.7,9.2 45.3,8.1C45.5,7.8 45.3,7.9 45.1,7C46.7,7 45.7,5.3 46.1,4.5L46,4.3C44,5.3 41.4,5.7 40.8,9L40.3,9C40.9,8.1 41.6,6.3 40.8,5.6L41.5,5.4C41.5,5 41.5,5.2 41.2,4.7L42.4,4.9C42,4.1 41.7,4.3 41,4.3C40.3,4.3 40.8,4.1 40.5,4.7L40.3,4.7L40.6,3.6C39.6,3.8 36.4,7.1 36.8,8.1L35.2,8.5L34.9,8.7C35.3,9.2 35.9,9.4 36.5,9.4C35.7,10.2 35.5,9.7 34.5,9.8L34.8,7.8C33.7,8 33.4,7.8 32.8,8.5L32.6,8.5C32.8,7.5 32.8,8 33.3,7.4C32.8,7.1 32.3,6.9 31.7,6.7L31.5,6.3C31.9,5.7 32.5,5.3 33.2,5.2C33.3,4.3 33.7,3.4 34.2,2.7L33,2.7L33.2,2.2L33.9,0.6L33.9,0C33.1,0.4 32.5,0.7 32.2,1.6L31.2,1.6C31.5,1.2 31.5,1.4 31.7,0.7C30.6,1 31.4,1.1 30.5,0.7C29.8,1.5 29.4,2.5 29.5,3.6L29.2,4C28.9,4.2 28.8,4 29,4.4C28.5,4.7 28.6,4.6 28.7,4.9C27.3,5.8 25.6,6.3 23.8,6.2L24,6.7L22.4,6.2C22.4,5.8 22.5,5.4 22.6,4.9L23.1,4.4L22.9,5.3C23.5,5 23.3,5 23.8,4.9C23.8,3.5 23.9,3.7 24.3,3.1L23.1,3.3L23.1,3.1C23.5,2.5 23.7,2.5 24,1.7L23.3,1.5L24,1.3L23.4,0.8L22.4,1.9C22.5,1.6 22.6,1.3 22.7,1L21.7,0.1C21.7,0.8 21.7,0.7 21.9,1.4L20.8,0.7C20.8,1.5 20.8,1.1 20.3,1.6L20.6,2.5L21,2.5L21,2C21.5,1.8 21.1,2 21,1.5L21.3,1.3L22.3,2.2C21.2,2.1 21.4,2.1 21.3,2.9L21.1,3.3C20.6,3 20.1,2.6 19.7,2C19.1,2.4 18.6,2.9 18.5,3.6C17.2,3.8 16,3.2 15.2,2.2L15,2.4L15.5,3.3C14.8,3.9 15,3.3 14.8,4L13.4,3.3L13,4.5L13.7,4L13.9,4.9L12.7,4.9L14.7,6.5C15.2,6 15,6.2 15.9,6C15.9,6.5 16.1,7 16.4,7.4C16.1,7.9 15.6,8.2 15,8.1L15.2,8.8C15.9,8.5 16.7,8.3 17.5,8.1L17.8,8.8C17,8.5 17.4,8.6 16.6,8.8L16.4,9.3L16.4,9.5C17,9.3 17.7,9.3 18.4,9.3C18.7,10.1 18.8,10.5 18.6,10.9C19.1,11.3 18.8,11.1 19.3,11.1L21,13.8L20.5,14.3L19.8,14.3L20.1,13.6L19.3,14L19.6,15.6C19.2,15.3 19.2,15.1 18.6,14.9C19,14.5 18.6,14.8 19.1,14.7C18.7,14.3 18.9,14.4 18.2,14.3C17.9,15 18,14.5 18.2,15.2C17.4,15.2 18,15.1 17,15.4L17.5,14.7L17.2,14.3L16,15.1L16.3,14.6C15.8,14.8 16.1,14.6 15.8,15C15.4,14.4 15.8,14.1 16.3,13.4L16.2,13C15.7,13.5 15.7,13.5 15.5,14.3C14.3,13.9 13.2,13.8 13.1,12.1L11.9,12.5L11.4,10.9L9.2,12L9.9,11.1C9.4,10.8 9.6,10.8 9.2,10.7L9.2,10L8.9,10.2L9,10.9C8.2,11.4 8.2,10.9 8,12.2C7.4,12.3 7.3,12.2 7,11.7L6.3,12L7,12.4C6.7,12.8 6.9,12.4 7,12.9C6.2,13.6 5.4,13.5 5,14.3L4.5,14.3C6.5,16.9 2.7,16.1 1.4,15.6C1,16.2 0.9,16.7 0.7,16.9L0.4,17.4L0.9,18L1.4,17.6L0.9,18.4L1.8,18.8C1.6,19.3 1.8,19.3 1.3,19.7C1.6,20.5 1.8,20.4 2.3,20.2C2.9,20.7 2.8,20.7 2.6,21.5C3.1,21.8 3.1,21.6 3.5,22C4.3,21.8 4.1,22 4.2,21.5C4.8,21.5 5.3,21.8 5.8,22.2L4.5,22C4,22.6 4.2,22.1 4.2,23.1L1.6,21.8L0,22.5C0.2,23.3 -0.3,23.8 0.7,24.3L0,25.4C1.3,26.4 2.4,26.3 4,27.4C3.3,27.6 2.5,27.7 1.7,27.8L1.7,28C2.2,28.3 2.5,28.8 2.6,29.4L4.6,29.4L4.6,30.5C5.6,30.5 6.1,31.1 7.2,30.7L7.2,31.4C7.7,31.7 8.4,31.7 8.9,31.4L8.7,32L9.4,31.6L9.2,32C9.6,32.7 9.4,32.7 10.2,32.5C10.2,33.5 10.2,32.8 10.5,33.6C10.4,33.8 10.3,34.1 10.3,34.3L9,34.3L9.4,34C9,33.6 9.4,33.8 8.9,33.8L8.3,33.8C8.5,33.5 8.8,33.2 9.2,32.9L8.9,32.9C8.9,32.9 7.4,33.4 6.5,33.6C6.9,34.5 8.7,34.9 8.8,34.9C8.5,35.3 8.2,35.7 7.8,36C7.6,35.7 7.6,35.3 7.6,34.9C6.8,35.7 7.2,36.9 5.9,36.7C5.1,36.9 5.3,36.7 4.5,36.2L4.2,36.2L4.7,37.3L3.7,37.7C3.6,38.5 3.5,37.9 4,38.4L2,40.2C2.4,40.7 3.1,40.9 3.7,40.7L3.2,41.4L3.4,41.6C3.9,41.6 4.2,41.8 3.7,42C4.2,42.3 3.9,42.2 4.6,42.2C3.9,42.8 3.8,42.4 2.9,42.7L3.1,42L3,42C2.6,42.2 2.4,42.6 2.3,43.1C3.4,43.1 3.9,43.1 4.3,43.5L3.6,44L3.6,44.2L4.6,43.7L4.8,44.4L5.1,43.7L5.1,43.3C6.1,44.5 5.5,45.5 7.1,45.8C7.5,46.1 7.9,45.7 8.5,45.3L7.6,46.4L7.6,47.3L9,46.6L9.3,46.6L8.6,46.2L8.8,45.5C9.4,45.8 10.1,46 10.8,46C10.8,46.6 11,46.1 10.6,46.5C11.4,47.3 13.1,47.2 14.6,47.7C14.4,47.3 14.5,47.6 14.5,47L15,47.4L15,47.6L14.7,47.8C15.5,48 16.2,48.5 16.6,49.3L17.3,50L15.9,50C15.9,50.5 15.9,50.2 15.7,50.7L17.3,51.8L17.3,52C16.8,52.3 16.7,52.2 16.1,52.2L16.1,52.9C17.4,52.9 17.4,52.5 18.5,52L19,52.7L19,52.9L18.3,53.2L17.8,53.4L17.3,54.3L19,53.4C20.2,54.9 20,58 20.6,59.4C22,62.5 23.2,65.7 24.1,69C25.2,74.6 23.3,79.4 23.2,85C23.7,85.5 24.5,85.7 25.2,85.4C26.4,84.4 25.6,81 25.9,79.1C27.1,71.6 24.8,61.6 29.2,57.1C30.1,56.6 31,56.2 32,56.1L32.2,55.9C31.9,55.7 31.7,55.5 31.5,55.2C32.2,55.4 32.7,55.4 32.9,55.6C33.9,55.6 34.4,55 33.4,54.7L33.9,54.5C33.3,53.7 32.3,53.2 31.3,53.2L32,52.1C32.2,51.8 32.7,51.9 33.4,51.7L33,51L33.7,50.6C34.1,50.6 33.7,50.6 33.5,50.2L36.5,47L37.9,46.8L37.9,47L37,48.3C37.7,47.9 38.6,48 39.3,48.5L40.2,48.3L39.4,48C40.6,47.8 41.8,47.8 43,47.8C43.2,47.6 43.1,47.8 43.2,48C43.9,48.6 44.4,47.5 45.2,47.6L46.1,47.2L44.1,46.7L44.3,45.8L42.5,46C43.2,45.6 44.1,45.3 44.9,45.3L45.1,44.6L44.1,43.9L44.8,44.8L43.8,45L44.5,44.8L43.6,44L43,45.1L41.6,44.2C41.7,43.5 41.6,42.8 41.3,42.2C41.7,41.8 41.5,41.9 42.2,41.7C42.3,40.8 41.8,41.5 42.4,40.8L41.5,40.4C40.6,40.3 39.7,40.3 38.9,40.6C39.1,40.3 39.1,40 39.1,39.7C40.2,39.9 41.3,39.9 42.4,39.7L42,40.4L42.7,40L42.7,40.7C43.3,41 42.7,40.9 43.4,40.7L43.9,40.9L42.7,41.6L42.5,42.1L42.7,42.5C43.9,42.2 44.2,42 46,41.4L46,42.1C46.8,41.6 47.8,41.2 48.8,41C48.8,40.5 48.8,40.8 48.6,40.3C49.2,39.9 49.4,40.1 49.6,39.2L50.3,39.7C50.8,39.3 50.2,39.4 50.8,39.3C50.2,38.4 49.8,38.7 49.6,38L48.4,38.2L49.1,38.7L47.7,39.2L47.7,39C47.2,38.8 46.6,38.9 46.1,39.2L45.8,38L48.2,37.5C47.8,36.9 47.9,37.1 46.8,37.1C47.5,36.6 49.1,36.6 49.9,36.6L50.3,35.7C49.8,35.5 49.7,35.6 49.4,35.2L49.1,35C50.1,34.9 51.2,34.8 52.2,34.6L52.4,34.2L52,34C51.5,34.4 51.9,34.2 50.6,34.4L50.4,33.9L52,32.6C51.7,31.9 52,31.9 51.5,32.1L51.8,30.8C52.3,30.3 54.2,30.9 54.9,29.5C55.3,29.3 55.5,28.2 55.2,26.6C54.8,26.8 54.3,26.8 53.8,26.7ZM48,24.2C47.7,23.9 47.9,24.2 47.6,23.8L48,24.2ZM44.4,6L44.7,6.4L44.4,6.8L44.4,6ZM41.8,6.9L42,7.3L41.7,7.3L41.8,6.9ZM39.9,6.9L40.2,7.3L39.7,7.3L39.9,6.9ZM38.7,7.6L39,7.4C39,7.4 39.1,7.6 38.7,7.8L38.7,7.6ZM38.5,10.7L38.8,10.7L38.6,11.2L38.1,11.2L38.5,10.7ZM37.5,8.3L37.1,8L37.5,8.3ZM36.1,10.7L36.8,10.7L37.1,11.1L37.1,11.5L36.8,11.9C35.8,11.9 36.3,11.6 35.4,11.9L36.1,10.7ZM36,15.5L36.2,15.9L35.6,16L35.4,15.6C35.9,15.6 35.5,15.9 36,15.5ZM34.7,12.8C34.9,13 35.1,13.1 35.2,13.3L35.2,13.5L34.9,13.7C34.6,13.2 34.7,13.4 34.7,12.8ZM34,16.2L34.3,16.2L33.8,16.7L33.6,16.3L34,16.2ZM23.6,3.8L23.4,4L23.1,3.5L23.6,3.8ZM22.7,2.3L22.9,2L23.4,2L23.4,2.2L22.9,2.6L22.7,2.6L22.7,2.3ZM18.4,8.8L17.9,8.6L18,8.1L18.4,8.1L18.4,8.8ZM18.6,3.8L18.9,4.2C18.6,3.9 18.8,4.1 18.6,3.8ZM0.9,17.7L0.9,17.3C1,17.6 1,17.4 0.9,17.7ZM2,18.8C2.2,19.1 2.2,18.8 2,19.2L2,18.8ZM2,19.7L2,19.3L2.3,19.3L2,19.7ZM5,23.7L4.7,24C4.5,23.6 4.7,23.4 4.5,22.4L4.8,22.6C5.2,22.6 5,22.7 5.7,23C5.4,23.6 5.7,23.3 5,23.7ZM7,37L6.8,37.4L6.6,37L7,37ZM6.6,44.8L6.6,44.4C6.3,44 6.6,44.4 6.4,43.9L6.8,44L7.5,43.8L7.7,44.5L6.6,44.8ZM7.8,44.8L8,44.4L8.2,44.4L7.8,44.8ZM32.3,54.8L32,54.2C32.5,54.6 32.3,54.3 32.5,54.8L32.3,54.8ZM43.8,46.7L43.5,46.3L43.8,46.7ZM42.1,44.9L41.8,44.7L42.1,44.9ZM50.4,38.9L50,38.8L50.4,38.9ZM48.4,40.5L48,40.2C48.4,40.5 48.2,40.2 48.4,40.5ZM43.9,32.9L44.4,32.9L44.7,33.4L44,34L43.9,32.9ZM44.8,35.2L44.8,35.4C43.9,35.1 44.4,35.3 44.1,34.7L44.8,35.2ZM43.6,33.2L43.3,33L43.6,33.2ZM41,29.5L40.7,29.9L40,29.4L41,29.5ZM39.2,32L39.5,32.2L39.2,32.7L39.2,32ZM38.2,41L38.5,40.5C38.8,41 38.5,40.8 38.2,41ZM38.5,39.8L38.2,39.6L38.5,39.8ZM38,37.7L38.3,38.1L38,38.2L38,37.7ZM36.8,43.1L38,43.6L37.8,44.1L37,44L36.7,44L36.5,43.6L36.8,43.1ZM36.4,42.4L36.6,41.9L36.8,41.9L36.4,42.4ZM36.8,41.5L37.5,41.7L36.8,41.5ZM37.3,40.2L37.8,40.6L37.3,40.2ZM37.3,39.9L37.6,40.1L37.3,39.9ZM37.3,28L37,27.8L37.3,28ZM36.8,39.7L36.6,40.2L35.8,40L35.6,39.6L36.1,39.4L36.8,39.7ZM34.8,43.7L34.6,43.3L35,43.3L34.8,43.7ZM35,43.8C35,43.8 35.1,44 34.7,44.2L34.7,44L35,43.8ZM34,42.6L34,41.7L34.7,41.9L34.9,42.3L34.9,42.5L34,42.6ZM32.8,43.3L32.8,43.1L33.1,42.9L33.6,42.9L32.8,43.3ZM33.6,45.8L33.4,46.3L33.1,45.8L33.6,45.8ZM31,45.8L31.3,46L32,46L31.5,46.5L30.3,46.5L31,45.8ZM30.5,40.8L30.7,40.4L30.9,40.4L30.5,40.8ZM31.2,44.9C31.3,45.3 31.2,45.1 31,45.4L31.2,44.9ZM29.8,31.5C30.1,31.8 29.9,31.5 30.1,31.9L29.8,31.5ZM30.5,33.5L30.2,33.1L30.5,33.5ZM30.2,33.7L29.9,33.5L30.2,33.7ZM30.2,35.7L30.4,36.1L30,36.1L30.2,35.7ZM30.7,36.6L30.9,36.6C30.6,36.9 30.9,37 30.4,36.8L30.7,36.6ZM30.7,34.5L31.4,33.4L31.6,34.5L31.3,34.7L30.7,34.5ZM30.9,32L31.1,31.6L31.3,32L30.9,32ZM31.2,38L32.4,38.2C32.1,38.5 31.7,38.7 31.4,38.7L31.1,38.5L31.2,38ZM32.1,34L31.8,34.2L31.8,33.5L32.3,33L32.8,33L32.8,33.2L32.1,34ZM32.8,46.3L32.5,45.9C32.8,46 32.6,45.8 32.8,46.2L32.8,46.3ZM32.5,36.9L32.5,36.5C32.6,36.7 32.6,36.5 32.5,36.8L32.5,36.9ZM31.8,39.9L31.5,39.7L31.8,39.9ZM31.8,45.5L32,45.1L32.7,45.1C32.3,45.3 32.4,45.2 31.8,45.4L31.8,45.5ZM32.8,47.3L32.5,47.1L32.8,47.3ZM32.6,46.6L33.1,47C32.6,46.7 32.9,46.9 32.6,46.6ZM33.5,31.8L33.2,31.4L34.1,30.7L34.8,30.9C34.2,31.4 34.1,31 33.6,31.7L33.6,31.8L33.5,31.8ZM34,34L34.7,34.4L34,34ZM34.7,36.7L34.5,36.9L34.5,36.2L34.7,36.7ZM34.4,46.1L34,46.4L34.2,46L34.4,46L34.4,46.1ZM34.4,41C34.9,41.2 34.6,41 34.9,41.4C34.4,41.2 34.7,41.5 34.4,41ZM34.7,33L35.4,32.6L35.6,32.8L36,32.8L35.8,33.3L35,33.3L34.7,33ZM35,41.5L35.3,42L35,42L35,41.5ZM35.2,34.3L35.7,34.5L35.2,34.3ZM36.3,33.2L36.5,32.8L36.7,32.8L36.3,33.2ZM36.1,31.2L36.4,31.6L35.5,31.8L35.5,31.3C35.9,31.7 35.5,31.6 36,31.5L36.1,31.2ZM34.5,24.6C34.8,24.8 35.2,25 35.5,25L33.8,25.9L33.6,25.2L34.5,24.6ZM32.6,15.4C33.1,15.7 32.6,15.8 33.3,15.9L33.1,16.4L32.5,16L32.6,15.4ZM32.8,25.6C32.5,26.5 32.8,26.1 31.8,26.1L32.3,25.4L32.8,25.6ZM31.8,8.3L32.1,8.7L31.8,8.3ZM32,7.6C31.8,7.9 31.6,8.1 31.3,8.3L30.9,8L31.1,7.6L32,7.6ZM31.7,3.6C31.2,3.4 31.5,3.6 31.2,3.2L31.5,3.4L31.5,3.1L31.8,3.1L31.7,3.6ZM33.4,1.6L32.8,1.3L33.4,1.6ZM32.9,2.8C32.8,3 32.6,3.2 32.4,3.3L32.6,2.8L32.9,2.8ZM30.2,1.3L30.4,1.3L30,1.6L30.2,1.3ZM30.7,1.8C31.4,2.1 31.3,2 32.5,2C32.2,2.6 32.5,2.2 32,2.5C31.5,2.6 31,2.7 30.4,2.7L30,2.2C30.7,2 30.4,2.2 30.7,1.8ZM30.5,4L30.2,4L30.4,3.6L30.5,4ZM30.4,7.8L30.6,7.8C30.6,8.2 30.3,8.5 30.3,8.9C29.9,8.5 30.1,8.9 30,8.2L30.4,7.8ZM29.3,16.4L29.8,16.8L29.8,17L29.1,16.8L29.3,16.4ZM28.6,37L29.1,37L28.8,38.3L28.8,38.7L28.6,38.7L28.6,37ZM29.3,38.1C30.5,38.3 30.9,38.2 31,39.9L30.7,39.5C30.4,40.5 29.8,40.6 28.7,40.6L28.5,40.2L29.3,38.1ZM29.1,47.1L28.8,47.8L28.1,47.6L28.8,46.9L29.1,47.1ZM28.6,45.3L28.3,45.3L28.5,44.9L28.6,45.3ZM28,44.5L28.3,44.7L28,44.5ZM28,38.4L28.2,39.3C27.6,38.7 27.8,39.1 28,38.4ZM27.8,40C27.5,39.7 27.7,40 27.5,39.6L27.8,40ZM28,5.6L27.8,6L27.6,5.6L28,5.6ZM27.6,37.1L28,36.6L28.2,37.3L27.6,37.3L27.6,37.1ZM28.1,37.9C27.5,38.2 27.7,38.3 27.2,37.9L28.1,37.9ZM24.3,19.5L24.3,19.2L24.8,19.6L24.6,19.8L24,19.8L24.3,19.5ZM24.5,20.7L24.2,20.5L24.5,20.7ZM23.8,31.4L24.1,31.8L23.8,32L23.8,31.4ZM24.6,54.8L24.6,55.7L24.4,55.7L24.1,53.7L24.6,54.8ZM23.9,44.8L24.1,45.7L23.8,45.7L23.9,44.8ZM22.7,6.4L22.9,6.4L22.7,6.9L22.7,6.4ZM23.4,12C23,12.4 22.4,12.7 21.8,12.7L22,12C21.6,12.1 21.8,12.1 21.3,12.5L21.6,11.4L23.4,12ZM22.2,23.2L22,22.5L22.5,22.7L22.2,23.2ZM22.6,40.9L22,41.4L21.8,41.2L22,40.7L22.2,40.9L22.6,40.9ZM23.3,35.3C22.8,35.4 23,35.5 22.6,35.1L23.3,35.3ZM22.7,23.3L22.7,22.9C22.9,23 22.9,22.8 22.7,23.1L22.7,23.3ZM22.7,21.5L22.5,21.5L22.7,20.8L23.4,20.8L22.7,21.5ZM23.1,20.4C22.6,20.2 22.9,20.4 22.6,20L23.1,20.4ZM22.6,19.3L22.9,19.5L22.6,19.3ZM22.2,14.6L21.9,14.4L22.2,14.6ZM21.9,2.3L21.7,2.7L21.5,2.3L21.9,2.3ZM21.4,3.2L21.7,3.2L21.5,4L21.3,4C21,3.4 21.3,4 21.4,3.2ZM21.2,9.4C21.6,9.8 21.4,9.4 21.5,10.1L20.1,10.6L20,10.6C20.2,10.3 20,10.5 20.3,10.2C20.6,9.9 20.3,10 20.8,10L21.2,9.4ZM20.3,5.4L20.6,5.4C20.3,5.8 20.6,5.5 20.1,5.8L20.3,5.4ZM20.5,9.2C20.4,9.4 20.2,9.6 20,9.7L20.2,9.2L20.5,9.2ZM20,5.2L19.7,5L20,5.2ZM20,11.2L21,11.6C20.8,12.2 20.8,12.8 21,13.4C20.4,12.8 20,12 20,11.2ZM21.7,17.2L22,17.6C21.1,18.7 20.7,17.6 20.3,18.1L20.1,17.2L21.7,17.2ZM21.2,34.7L21,34.7L20.8,33.8C21.2,34 21.1,34 21.2,34.6L21.2,34.7ZM20.5,15.1C20.1,15.4 20.5,15.4 20,15.1L20.5,15.1ZM20.2,15.8L19.9,15.6L20.2,15.8ZM19.8,33.7L19.4,33.2C19.8,33.5 19.6,33.2 19.8,33.7ZM19.1,31C18.8,30.7 19,31 18.8,30.6L19.1,31ZM18.6,33C19.2,33.3 19.1,33.1 19.3,33.9L18.6,33.5L18.6,33ZM17.9,31.2L17.3,31L17.9,31.2ZM18.6,34.6L17.7,34.8L17.7,34C17.5,34.1 17.2,34.2 17,34.2C16.6,34.5 16.8,34.2 16.5,33.8L17.2,32.5L17.2,32.3C16.5,32.6 16.7,32.7 16.7,33.2C16.2,32.8 16.1,32.6 16,31.8L16.5,31.6C17.6,32.3 18.4,33.4 18.6,34.6ZM17.2,35.2C17.5,35.5 17.3,35.2 17.5,35.6L17.2,35.2ZM17.9,36.4L17.6,35.9L17.9,36.4ZM17.7,45.5L18.2,45.5L17.7,46L17.5,45.8L17.7,45.5ZM16.3,41L16.6,41L16.6,41.2L16,41.2L15.8,40.3L16.3,41ZM16,34.4L16,34L16.2,34L16,34.4ZM16.3,27.2C16.6,27.5 16.4,27.2 16.6,27.6L16.3,27.2ZM16.1,17.5L16.3,17.1L16.5,17.1L16.7,17.6L16.2,17.6L16.2,17.5L16.1,17.5ZM16.1,28.5L15.8,28.1C16.1,28.4 16,28.1 16.1,28.5ZM13.7,27.4L13.9,27.4L14,28L13.7,28.2L13.7,27.4ZM14.4,28.5L14,28.3L14.4,28.5ZM13,13.7L13.2,13.7L13,14.3L12.7,13.9L13,13.7ZM13,26.9L12,26.7L12.3,26.3L12.8,26.5L13,26.9ZM12.2,15.3L12,14.8L12.9,15.5L12.2,15.3ZM12.3,13.2L12.5,13.2L12.3,13.9L11.8,13.9L11.6,13.5L12.3,13.2ZM11.3,13.5L11.5,13.5L11.2,13.9L11.3,13.5ZM10.8,14L10.5,13.8L10.8,14ZM8.7,12L8.4,11.8L8.7,12ZM9.2,20.8L8.9,20L9.4,19.6L9.7,19.8C10.2,20.3 11,20.3 11.7,20.7L11.5,20.2L12.4,20.2L12.4,20.9C11.8,21.1 12.1,20.9 11.4,21.4C9.8,19.9 10.2,21.1 8.4,21L9.6,21.7L9.6,22L8.9,22.4L7.2,21C7.9,20.8 8.5,20.7 9.2,20.8ZM11.2,25.2C10.7,25.4 10.8,24.8 9.5,24.7L9.5,23.9L11.8,24.3L12,24.8L11.2,25.2ZM11.5,25.9L11.5,27L11.2,26.8L11.5,25.9ZM10.5,30.2L10.3,29.8C10.6,30 10.3,30 10.5,30.2ZM10.3,26.6L10,26.8C9.8,26.3 9.8,25.7 10,25.2C10.5,25.5 10.2,25.2 10.5,25.7C10.2,26 10.2,25.7 10.3,26.6ZM11,27C10.7,26.7 10.9,27 10.7,26.6L11,27ZM9.6,25.2L9.6,25.7C8.6,25.7 9,26 8.6,25.2C9.2,25.3 8.8,25.3 9.5,25.1L9.6,25.2ZM8.8,23.2L8.5,22.8L8.8,22.6L9,22.6L9.1,23L8.8,23.2ZM7.1,17.7L7.6,17.2L7.6,18.6L7.5,18.6L7.1,17.7ZM7.8,15.3L8.1,15.3L8.1,16L7.4,16.2C7.7,15.9 7.8,15.6 7.8,15.3ZM7.3,12.4L7.5,12.8L7.1,12.8L7.3,12.4ZM7.3,13.3L7.5,13.3L7.1,14L6.9,14L6.7,13.5L7.3,13.3ZM6.6,16L6.9,16.4L6.6,16.6L6.6,16ZM3,19.1C3.2,19.2 3.4,19.4 3.5,19.6L3,19.1ZM3.7,21.6L3.9,21.1L4.2,21.3L3.7,21.6ZM4,19.5L4.3,19.7L4,19.5ZM4.9,20L5.2,20.2L4.9,20ZM6,23.4L6.3,23.8L6,23.4ZM5.6,17.3C5.7,16.9 5.6,16.4 5.4,16C6.1,16.4 6.3,16.8 7,16.9C6.6,17.3 6.3,17.3 5.6,17.3ZM6.9,24L6.4,24L7.3,23.1C7.3,23.5 7.2,23.4 6.9,24ZM7.3,24.7L7.1,24.7L7.1,24C7.5,23.9 7.9,23.7 8.3,23.5C8.8,23.9 8.6,23.7 8.8,24.4C8.1,24.4 8.4,24.1 8.1,24.9L8,24.9C7.7,24.5 8,24.6 7.5,24.2L7.3,24.7ZM7.6,31L7.8,30.6L8.3,30.6L7.6,31ZM9.4,29.2L8.4,29.2L8.6,28.5L9.4,29L9.4,29.2ZM9.4,26.9L10.3,27.3C9.7,27.4 9.7,27.4 9.4,26.9ZM9.5,35.5L9.5,36L9,36.2L8.7,35.5L9.5,35.5ZM10.2,44.9L10,44.9L10,44C10.5,44.3 10.3,44.3 11,44.5C10.8,44.8 10.9,44.8 10.2,44.9ZM11.1,40.9C11.1,40.5 11.1,40.7 11.3,40.2C10.7,40.4 10.7,40.6 10.3,40.9L9.4,39.8C8.8,39.6 8.9,39.7 8.5,39.3L8.9,39.1L9.4,39.3C10.5,38.7 11.4,39.7 11.7,39.7C12.4,40 11.7,40.5 11.1,40.9ZM10.8,33.5L11.1,33.9C10.8,33.7 11,33.9 10.8,33.5ZM11.8,33.5L12.3,33.7L11.8,33.5ZM12.7,46.3L12.9,46L13,46L12.7,46.3ZM14.2,42.7L15.2,42.7C14.9,43.6 15,43.3 14.2,42.7ZM14.4,32C14.2,32.4 13.9,32.7 13.5,32.9C12.9,32.1 12,31.6 11.1,31.6L11.6,31.2L10.2,30.8C10.6,30.5 10.8,30.5 11.8,30.4L11.6,29.5L12.1,29.1C13,29.4 12.7,29.6 13.5,29.3L13.7,29.5L13,30.7C13.7,30.2 13.4,30.7 14.4,30.3L16,33.1C14.8,32.7 15.9,32.5 14.4,32ZM17.5,50.2L18,50.7L17.5,50.2ZM18.7,48.4L18.4,48.2C18.6,48.7 18.4,48.3 18.7,48.6C18.6,49.1 18.5,49.5 18.2,49.9L15.6,47C16.5,46.9 16.1,46.7 16.5,47C16.9,47.3 16.7,47 16.7,47.5L17.4,47.9C17.7,47.5 17.5,47.6 17.7,47C17.2,46.4 17.7,46.6 16.8,46.5L17,46.1C17.9,46.3 17.5,46 17.9,46.6L18.6,45.7L18.8,45.7C18.8,46.1 18.8,45.9 18.5,46.4L18.5,46.6L19.9,46.8L20.1,48.2L20.3,48.7C19.4,48.6 19.4,48.5 18.7,48.4ZM19.1,49.1L19.1,48.6L19.3,48.6L19.1,49.1ZM19.6,53.1C19.8,52.3 19.5,52.7 20.1,52.4L20.1,52C20.5,52.3 20.2,52 20.4,52.5L20.4,52.7L19.7,53.2L19.6,53.1ZM20.1,54.8L20.1,53.4L20.6,53.6L21,53.6L21,55.2L20.1,54.8ZM20.6,52.1L21,52.1L21,52.8L20.6,52.1ZM20.8,56.7C20.8,56 20.8,56.5 21,56L21.2,56L20.8,56.7ZM21.4,42C20.7,41.7 21.1,42 20.9,41.1L21,41.1L21.3,41.5L21.3,42L21.4,42ZM21.9,47.6L21.6,47.2C21.9,47.5 21.6,47.3 21.9,47.6ZM21.7,52.8C22.3,52.8 22,53 22.4,52.6L23.1,52.6L23.3,53.5L21.9,53.9L21.7,53.9L21.7,52.8ZM21.9,57L21.9,56C22.5,55.6 22.6,55.5 23.3,55.6L23.5,55.4C23.4,54.5 23.2,54.6 23.2,54C24,54.4 24,55 24.2,55.8L22.2,56.9L21.9,57ZM23.4,59.3C23.1,59.7 23.4,59.5 22.7,59.7L22.7,59.5L23,59.3L23.4,59.3ZM24.7,66.3L24.4,66.3L22.7,60.7L23.2,60L23.7,60.2C23.7,60.7 23.7,60.4 23.5,60.9L24.5,61.1L25,60.9C24.9,62.8 24.8,64.6 24.7,66.3ZM24.7,52.3L24.7,51.8L25,52.3L24.7,52.3ZM25,46.4L24.5,46.6C24.4,45.9 24.4,45.1 24.7,44.4L25.2,45.8L25,46.4ZM25,16.4L25.3,16.6L25,16.4ZM25.5,45.6L25.7,44.5C25.9,45.1 25.9,45.2 25.5,45.6ZM25.7,9.7L26.4,9.9C25.8,10.3 26,10.4 25.7,9.7ZM26,52L26.2,53.4L25.9,53.6L26,52ZM26.2,57.4L26.2,54.8L26.4,57.3L26.2,57.4ZM26,50.9L26,50.4L26.3,50.4L26,50.9ZM26,27.4L26.2,27L26.4,27L26.6,27.4L26,27.4ZM25.7,9.6L25,8.5L25.7,8.1L26.6,8.8L25.7,9.6ZM26.2,6.7L26.7,6.7C26.3,7 26.7,6.9 26.2,6.7ZM27.4,44.2L27.2,44.7L27,43.8L27.4,44.2ZM28.8,55.5L28.5,55.1L29.2,54.6L29.5,55.1C29,55.4 29.2,55.1 28.8,55.5ZM30,55.7L29.8,55.3L30,55.1L30.3,55.3L30,55.7ZM30.9,55.4L31.1,55.4L31.3,55.9C30.9,55.6 31.1,56 30.9,55.4ZM31.6,51.1L31.7,51.4L31.6,51.1C31.4,51.8 31.2,52.5 31,53C30.2,53.3 28.9,53.1 28.2,53.5C27.5,53.9 28.7,55.5 27.3,56C28,56.5 28.2,56.2 28.7,55.6L28.9,56L28,58L27.3,58.2C27.2,55.9 27.4,53.5 28,51.2C28.3,51.4 28.6,51.6 28.9,51.9L29.9,52.1C29.6,51.5 29,51 28.3,51L28.3,50.8L30,49.7L29.8,50.2L30.7,50.7C30.7,50.2 30.7,50.5 30.5,50L31.4,50L31.2,49.3C30.5,49.3 30.9,49.1 30.5,49.5L30.3,49.5C30.3,48.5 30.3,48.5 29.1,48.6L29.1,48.4C29.5,47.9 29.4,47.9 30.3,47.9C30,47.6 30.1,47.7 29.4,47.5L31,47C31.7,47.4 31.8,47.6 32.6,47.5C32.5,48 32,49.7 31.6,51.1ZM32.6,50.5L32.6,49.6L33.5,49.4C33.7,48.8 33.1,47.8 33.7,46.7C34.2,47.1 34,46.9 34,47.4L35.7,47.2C34.9,48.5 33.9,49.6 32.6,50.5ZM35.4,43.8L35.6,43.4L35.8,43.8L35.4,43.8ZM35.7,42L35.9,41.6L36.2,41.6C36,42 36.3,41.8 35.7,42ZM36.8,45.4C36.5,45 36.5,45.3 36.3,44.7C36.9,45 36.7,44.9 37.3,44.9L36.8,45.4ZM37.5,46.5L37.7,46.1L38.4,46.3L37.5,46.5ZM38.7,44.5L38,44.4L38.7,43.7L39,43.7C39,44.6 39.3,44 38.7,44.5ZM40.3,45.2C39.7,45.2 40.1,45.2 39.6,45.4L39.6,45L39.3,44.8C40,44.8 39.7,45 40.2,44.4L40.4,44.4L40.4,45.2L40.3,45.2ZM41.1,40.7C40.6,40.9 41.1,41 40.6,40.7L41.1,40.7ZM41.1,41.5L41.3,41.5C40.9,42.3 40.8,42 41.1,42.8C40.3,42.8 40.4,42.8 40.1,43.5L38.9,43.5C39.5,42.8 40.3,42.3 41.1,41.5ZM40.4,38.8L38.8,39.3L38.6,39.1C39,38.4 39.2,39.1 38.9,38.4L39.6,38.2L40.3,38.6L40.3,38.8L40.4,38.8ZM40,32.3L40.3,32.5L40,32.3ZM40.3,31.2C40,31.4 40.1,31 39.8,30.5L40.1,30.3L40.4,30.5C41,30.5 40.8,30.8 41.6,31L40.7,31.7C40.5,31.3 40.7,32 40.3,31.2ZM41.6,36.4L42.1,36.6L41.6,36.4ZM41.7,31.4L42.2,31.8L41.7,31.4ZM43,39L43.5,39C43.2,39.2 43.3,39.4 43,39ZM43,37.2L42.6,37L42.3,36.5L42.6,36.3C43.5,36.8 43.6,36.7 44.6,36.7C44.2,37 43.6,37.2 43,37.2ZM44.7,39.2L44.4,39L44.7,39.2ZM44.9,40.6L44.2,40.6C44.5,40.2 44.3,40.4 43.9,40.2C44.2,39.6 44.4,39.8 44.9,39.5L45.1,39.5L44.9,40.6ZM48.9,34.1L48.7,34.5L48.6,34L48.9,34.1ZM48.7,34.7L48.9,35.1L48.6,35.1L48.7,34.7ZM48.2,31.2C48.3,31.6 48.2,31.4 48,31.7L48.2,31.2ZM48.4,34.3L48,34L48.4,34.3ZM47.3,30.7L47.8,31.8L47.5,32.2L47,32C47.2,31 47.2,31.7 47.3,30.7ZM48,34.8L47.1,35.2L47.1,34.8L48,34.8ZM46.4,32.8L46.2,32.4L46.5,32.4L46.4,32.8ZM46.8,31.7L47,31.7L47.2,32.2C46.7,32 46.9,32.3 46.8,31.7ZM47,36.6L47.2,36.2L47.4,36.2L47,36.6ZM49.4,36.3C48.9,36.3 48.9,36.3 48.4,36.5L48,36.2L48.9,35.3L49.4,36.3ZM49,31.4L49.3,31.9L49,31.4ZM49.7,28.5L50.6,28.7L49.7,29.2L49.7,28.5ZM49.9,29.8L50.2,30L49.9,29.8ZM51,29.6C50.8,29.5 50.6,29.3 50.5,29.1L51,29.1L51,29.6ZM51.5,29.9L51.8,30.3L51.5,29.9ZM54.6,27.6L54,27.4L54.6,27.6ZM52.9,28.7L53.1,28.3L53.6,28.3L52.9,28.7ZM54.1,28.3L53.8,28.1L54.1,28.3ZM54,30L53.8,29.5L54.3,29.7L54,30ZM54.3,29.3L54.6,29.5L54.3,29.3ZM54.5,28.2L54.8,28.6C54.5,28.2 54.7,28.5 54.5,28.2Z" style="fill:url(#_Linear1);fill-rule:nonzero;"/>
    </g>
    <defs>
        <linearGradient id="_Linear1" x1="0" y1="0" x2="1" y2="0" gradientUnits="userSpaceOnUse" gradientTransform="matrix(5.61745e-15,-91.74,91.74,5.61745e-15,27.694,84.88)"><stop offset="0" style="stop-color:rgb(91,62,52);stop-opacity:1"/><stop offset="0.05" style="stop-color:rgb(89,77,48);stop-opacity:1"/><stop offset="0.18" style="stop-color:rgb(85,105,40);stop-opacity:1"/><stop offset="0.3" style="stop-color:rgb(82,126,34);stop-opacity:1"/><stop offset="0.42" style="stop-color:rgb(81,138,31);stop-opacity:1"/><stop offset="0.54" style="stop-color:rgb(80,142,30);stop-opacity:1"/><stop offset="1" style="stop-color:rgb(156,199,21);stop-opacity:1"/></linearGradient>
    </defs>
</svg>
