<?xml version="1.0" encoding="utf-8"?>
<!-- Generator: Adobe Illustrator 22.0.1, SVG Export Plug-In . SVG Version: 6.00 Build 0)  -->
<svg version="1.1" id="レイヤー_1" xmlns="http://www.w3.org/2000/svg" xmlns:xlink="http://www.w3.org/1999/xlink" x="0px"
	 y="0px" viewBox="0 0 487 173.5" style="enable-background:new 0 0 487 173.5;" xml:space="preserve">
<style type="text/css">
	.st0{fill:url(#SVGID_1_);}
	.st1{fill:url(#SVGID_2_);}
	.st2{fill:url(#SVGID_3_);}
	.st3{fill:url(#SVGID_4_);}
	.st4{fill:url(#SVGID_5_);}
	.st5{fill:url(#SVGID_6_);}
	.st6{fill:url(#SVGID_7_);}
	.st7{fill:url(#SVGID_8_);}
	.st8{fill:url(#SVGID_9_);}
	.st9{fill:url(#SVGID_10_);}
	.st10{fill:#231815;}
</style>
<title>logo</title>
<linearGradient id="SVGID_1_" gradientUnits="userSpaceOnUse" x1="3.22" y1="2.08" x2="484" y2="2.08" gradientTransform="matrix(1 0 0 -1 0 88)">
	<stop  offset="0" style="stop-color:#5B3E34"/>
	<stop  offset="5.000000e-02" style="stop-color:#594D30"/>
	<stop  offset="0.18" style="stop-color:#556928"/>
	<stop  offset="0.3" style="stop-color:#527E22"/>
	<stop  offset="0.42" style="stop-color:#518A1F"/>
	<stop  offset="0.54" style="stop-color:#508E1E"/>
	<stop  offset="1" style="stop-color:#9CC715"/>
</linearGradient>
<rect x="3.2" y="84.7" class="st0" width="480.8" height="2.4"/>
<linearGradient id="SVGID_2_" gradientUnits="userSpaceOnUse" x1="30.7" y1="8.48" x2="162.32" y2="8.48" gradientTransform="matrix(1 0 0 -1 0 88)">
	<stop  offset="0" style="stop-color:#5B3E34"/>
	<stop  offset="5.000000e-02" style="stop-color:#594D30"/>
	<stop  offset="0.18" style="stop-color:#556928"/>
	<stop  offset="0.3" style="stop-color:#527E22"/>
	<stop  offset="0.42" style="stop-color:#518A1F"/>
	<stop  offset="0.54" style="stop-color:#508E1E"/>
	<stop  offset="1" style="stop-color:#9CC715"/>
</linearGradient>
<rect x="30.7" y="78.3" class="st1" width="131.6" height="2.4"/>
<linearGradient id="SVGID_3_" gradientUnits="userSpaceOnUse" x1="45.66" y1="14.92" x2="162.32" y2="14.92" gradientTransform="matrix(1 0 0 -1 0 88)">
	<stop  offset="0" style="stop-color:#5B3E34"/>
	<stop  offset="5.000000e-02" style="stop-color:#594D30"/>
	<stop  offset="0.18" style="stop-color:#556928"/>
	<stop  offset="0.3" style="stop-color:#527E22"/>
	<stop  offset="0.42" style="stop-color:#518A1F"/>
	<stop  offset="0.54" style="stop-color:#508E1E"/>
	<stop  offset="1" style="stop-color:#9CC715"/>
</linearGradient>
<rect x="45.7" y="71.9" class="st2" width="116.7" height="2.4"/>
<linearGradient id="SVGID_4_" gradientUnits="userSpaceOnUse" x1="53.5071" y1="41.66" x2="178.6" y2="41.66" gradientTransform="matrix(1 0 0 -1 0 88)">
	<stop  offset="0" style="stop-color:#5B3E34"/>
	<stop  offset="5.000000e-02" style="stop-color:#594D30"/>
	<stop  offset="0.18" style="stop-color:#556928"/>
	<stop  offset="0.3" style="stop-color:#527E22"/>
	<stop  offset="0.42" style="stop-color:#518A1F"/>
	<stop  offset="0.54" style="stop-color:#508E1E"/>
	<stop  offset="1" style="stop-color:#9CC715"/>
</linearGradient>
<path class="st3" d="M57,39.6c-0.4-2.2,1.5-4.5,5.4-6.4l40.9-19.1c9.6-3.8,20.2-3.8,29.8,0l36.6,19.4c3.6,1.7,5.6,3.8,5.6,5.8
	l1.7-1.7h-16.3v47.1h3.3V39.3l-1.7,1.7h16.3v-1.7c0-3.5-2.7-6.6-7.5-8.8l-36.5-19.4c-9.1-4.2-23.8-4.2-32.8,0L61,30.2
	c-5.4,2.5-8.1,6.2-7.3,10.1L57,39.6z"/>
<linearGradient id="SVGID_5_" gradientUnits="userSpaceOnUse" x1="53.08" y1="32.13" x2="73.44" y2="32.13" gradientTransform="matrix(1 0 0 -1 0 88)">
	<stop  offset="0" style="stop-color:#5B3E34"/>
	<stop  offset="5.000000e-02" style="stop-color:#594D30"/>
	<stop  offset="0.18" style="stop-color:#556928"/>
	<stop  offset="0.3" style="stop-color:#527E22"/>
	<stop  offset="0.42" style="stop-color:#518A1F"/>
	<stop  offset="0.54" style="stop-color:#508E1E"/>
	<stop  offset="1" style="stop-color:#9CC715"/>
</linearGradient>
<path class="st4" d="M71.8,66.1l-0.1,1.3H65l0.1-1.3c0-0.3,0.2-0.5,0.5-0.6l1.3-0.3l-5.1-7.7c-0.3-0.4-0.5-0.6-0.8-0.7
	c-0.2,0-0.5,0-0.7,0h-1.3l-0.9,8.2l1.6,0.4c0.3,0,0.4,0.3,0.4,0.6L60,67.4h-6.9l0.1-1.4c0-0.3,0.2-0.6,0.5-0.6l1.7-0.4l2-18.4
	l-1.6-0.4c-0.3,0-0.4-0.3-0.3-0.6l0.1-1.4h6.9l-0.1,1.4c0,0.3-0.2,0.6-0.5,0.6l-1.7,0.4l-0.9,7.8h1c0.6,0,1.2-0.3,1.5-0.7l6.5-7.3
	l-1.2-0.3c-0.3,0-0.3-0.2-0.3-0.5l0.1-1.3h6.5v1.2c0,0.3-0.2,0.5-0.5,0.6l-1.4,0.4l-6.9,7.7c-0.3,0.4-0.8,0.8-1.2,1
	c0.5,0.3,0.9,0.7,1.2,1.2l5.4,8.7l1.4,0.4C71.7,65.6,71.9,65.8,71.8,66.1z"/>
<linearGradient id="SVGID_6_" gradientUnits="userSpaceOnUse" x1="73.2296" y1="32.1202" x2="93.6236" y2="32.1202" gradientTransform="matrix(1 0 0 -1 0 88)">
	<stop  offset="0" style="stop-color:#5B3E34"/>
	<stop  offset="5.000000e-02" style="stop-color:#594D30"/>
	<stop  offset="0.18" style="stop-color:#556928"/>
	<stop  offset="0.3" style="stop-color:#527E22"/>
	<stop  offset="0.42" style="stop-color:#518A1F"/>
	<stop  offset="0.54" style="stop-color:#508E1E"/>
	<stop  offset="1" style="stop-color:#9CC715"/>
</linearGradient>
<path class="st5" d="M92.3,60.6c-0.6,1.4-1.4,2.6-2.5,3.7c-1,1-2.2,1.8-3.5,2.4c-1.3,0.6-2.8,0.9-4.2,0.9c-1.4,0-2.8-0.3-4-0.9
	c-1.2-0.6-2.2-1.4-2.9-2.4c-0.8-1.1-1.4-2.4-1.7-3.7c-0.3-1.6-0.4-3.2-0.2-4.8c0.2-1.6,0.6-3.2,1.3-4.8c0.6-1.4,1.4-2.6,2.5-3.7
	c1-1,2.2-1.9,3.5-2.4c1.3-0.6,2.8-0.9,4.2-0.8c1.4,0,2.7,0.3,4,0.8c1.2,0.6,2.2,1.4,2.9,2.4c0.8,1.1,1.4,2.4,1.7,3.7
	c0.3,1.6,0.4,3.2,0.2,4.8C93.4,57.5,92.9,59.1,92.3,60.6z M90.6,52c-0.2-1-0.6-2-1.1-2.9c-0.5-0.8-1.3-1.4-2.1-1.8
	c-0.9-0.4-1.9-0.6-2.9-0.6c-2.1,0-4.1,0.8-5.5,2.4c-0.8,0.8-1.4,1.8-1.8,2.9c-0.5,1.2-0.8,2.5-0.9,3.8c-0.2,1.3-0.1,2.5,0.1,3.8
	c0.2,1,0.6,2,1.1,2.9c0.5,0.7,1.2,1.4,2,1.8c0.9,0.4,1.9,0.7,2.9,0.6c2.1,0,4.2-0.8,5.6-2.3c0.8-0.8,1.4-1.8,1.8-2.9
	c0.5-1.2,0.8-2.5,0.9-3.8C90.9,54.6,90.8,53.3,90.6,52z"/>
<linearGradient id="SVGID_7_" gradientUnits="userSpaceOnUse" x1="93.84" y1="32.14" x2="117.06" y2="32.14" gradientTransform="matrix(1 0 0 -1 0 88)">
	<stop  offset="0" style="stop-color:#5B3E34"/>
	<stop  offset="5.000000e-02" style="stop-color:#594D30"/>
	<stop  offset="0.18" style="stop-color:#556928"/>
	<stop  offset="0.3" style="stop-color:#527E22"/>
	<stop  offset="0.42" style="stop-color:#518A1F"/>
	<stop  offset="0.54" style="stop-color:#508E1E"/>
	<stop  offset="1" style="stop-color:#9CC715"/>
</linearGradient>
<path class="st6" d="M110.8,60.7l1.5-14l-1.9-0.4c-0.3,0-0.4-0.3-0.3-0.6l0.1-1.4h6.8l-0.1,1.4c0,0.3-0.2,0.6-0.5,0.6l-1.7,0.4
	l-2.3,20.7h-1.4c-0.4,0-0.8-0.2-0.9-0.6l-10-17.3c0,0.5,0,1.1-0.1,1.5l-1.5,14l1.9,0.4c0.3,0,0.4,0.3,0.3,0.6l-0.1,1.4h-6.8L94,66
	c0-0.3,0.2-0.5,0.5-0.6l1.7-0.4l2-18.3c-0.9-0.2-1.4-0.4-1.6-0.4s-0.4-0.3-0.4-0.6l0.1-1.4h3.5c0.2,0,0.4,0,0.5,0
	c0.2,0.1,0.3,0.3,0.4,0.4l10,17.4C110.7,61.8,110.7,61.3,110.8,60.7z"/>
<linearGradient id="SVGID_8_" gradientUnits="userSpaceOnUse" x1="116.04" y1="32.1462" x2="139.26" y2="32.1462" gradientTransform="matrix(1 0 0 -1 0 88)">
	<stop  offset="0" style="stop-color:#5B3E34"/>
	<stop  offset="5.000000e-02" style="stop-color:#594D30"/>
	<stop  offset="0.18" style="stop-color:#556928"/>
	<stop  offset="0.3" style="stop-color:#527E22"/>
	<stop  offset="0.42" style="stop-color:#518A1F"/>
	<stop  offset="0.54" style="stop-color:#508E1E"/>
	<stop  offset="1" style="stop-color:#9CC715"/>
</linearGradient>
<path class="st7" d="M133,60.7l1.5-14l-1.9-0.4c-0.3,0-0.4-0.3-0.3-0.6l0.1-1.4h6.8l-0.1,1.4c0,0.3-0.2,0.6-0.5,0.6l-1.7,0.4
	l-2.3,20.7h-1.4c-0.4,0-0.8-0.2-0.9-0.6l-10-17.3c0,0.5,0,1.1-0.1,1.5l-1.5,14l1.9,0.4c0.3,0,0.4,0.3,0.3,0.6l-0.1,1.4H116l0.1-1.4
	c0-0.3,0.2-0.5,0.5-0.6l1.7-0.4l2-18.3c-0.9-0.2-1.4-0.4-1.6-0.4s-0.4-0.3-0.4-0.6l0.1-1.4h3.6c0.2,0,0.4,0,0.5,0
	c0.2,0.1,0.3,0.3,0.4,0.4l10,17.4C132.9,61.8,132.9,61.3,133,60.7z"/>
<linearGradient id="SVGID_9_" gradientUnits="userSpaceOnUse" x1="138.8696" y1="32.1202" x2="159.2634" y2="32.1202" gradientTransform="matrix(1 0 0 -1 0 88)">
	<stop  offset="0" style="stop-color:#5B3E34"/>
	<stop  offset="5.000000e-02" style="stop-color:#594D30"/>
	<stop  offset="0.18" style="stop-color:#556928"/>
	<stop  offset="0.3" style="stop-color:#527E22"/>
	<stop  offset="0.42" style="stop-color:#518A1F"/>
	<stop  offset="0.54" style="stop-color:#508E1E"/>
	<stop  offset="1" style="stop-color:#9CC715"/>
</linearGradient>
<path class="st8" d="M158,60.6c-0.6,1.4-1.4,2.6-2.5,3.7c-1,1-2.2,1.9-3.5,2.4c-1.3,0.6-2.8,0.9-4.2,0.9c-1.4,0-2.8-0.3-4-0.9
	c-1.2-0.6-2.2-1.4-2.9-2.4c-0.8-1.1-1.4-2.4-1.7-3.7c-0.3-1.6-0.4-3.2-0.2-4.8c0.2-1.6,0.6-3.2,1.3-4.8c0.6-1.4,1.4-2.6,2.5-3.7
	c1-1,2.2-1.9,3.5-2.4c1.3-0.6,2.8-0.9,4.2-0.8c1.4,0,2.7,0.3,4,0.8c1.2,0.6,2.2,1.4,2.9,2.4c0.8,1.1,1.4,2.4,1.7,3.7
	c0.3,1.6,0.4,3.2,0.2,4.8C159,57.5,158.6,59.1,158,60.6z M156.2,52c-0.2-1-0.6-2-1.1-2.9c-0.5-0.8-1.3-1.4-2.1-1.8
	c-0.9-0.4-2-0.6-3-0.5c-2.1,0-4.1,0.8-5.5,2.4c-0.7,0.8-1.3,1.7-1.7,2.8c-0.5,1.2-0.8,2.5-0.9,3.8c-0.2,1.3-0.1,2.5,0.1,3.8
	c0.2,1,0.6,2,1.1,2.9c0.5,0.7,1.2,1.4,2,1.8c0.9,0.4,1.9,0.7,2.9,0.6c2.1,0,4.1-0.9,5.5-2.4c0.8-0.8,1.4-1.8,1.8-2.9
	c0.5-1.2,0.8-2.5,0.9-3.8C156.4,54.5,156.4,53.3,156.2,52z"/>
<linearGradient id="SVGID_10_" gradientUnits="userSpaceOnUse" x1="27.694" y1="3.12" x2="27.694" y2="94.86" gradientTransform="matrix(1 0 0 -1 0 88)">
	<stop  offset="0" style="stop-color:#5B3E34"/>
	<stop  offset="5.000000e-02" style="stop-color:#594D30"/>
	<stop  offset="0.18" style="stop-color:#556928"/>
	<stop  offset="0.3" style="stop-color:#527E22"/>
	<stop  offset="0.42" style="stop-color:#518A1F"/>
	<stop  offset="0.54" style="stop-color:#508E1E"/>
	<stop  offset="1" style="stop-color:#9CC715"/>
</linearGradient>
<path class="st9" d="M53.8,26.7l0.5-1.1l-0.5-0.2l-0.9,0.4h-0.3c0.3,0.5,0,0.3,0.7,0.5c-0.6,0.6-0.6,0.4-1.4,0.2
	c-0.1,0.9-0.1,0.8-0.5,1.3c0,0.3,0,0,0.3,0.5l0.5,0.5c-0.8-0.3-0.5-0.5-0.9-0.2c-0.7-0.3-0.4,0-0.3-0.7l-1.2-0.2L49,29.6h0.5
	c-1.8,0.7-3.7,1.1-5.6,1.3v-1.3c-0.9,0.4,0,0.7-0.7,1.3l-0.7,0.4l-1-0.7l0.4-0.2l0,0l2.2-1.1l-0.9-1.1c0.4-0.1,0.2-0.2,0.7-0.5
	s0-0.2,0.5-0.2c-0.3-0.6-0.2,0,0-0.7l-1,0.2v-0.4c1.5-0.4,3.9-1.6,5.6-2l0.5-0.5l-0.9-0.2l1-0.7c0.3-0.4,0.2-0.2,0.3-0.9V22
	c-0.9-0.2-1.7,0-2-0.4c-0.7,0.4-0.3,0-0.4,0.7c-0.8-0.3-0.3-0.1-2,0c1-0.9,0.9-2.3,1.6-2.5c-0.2-1.5-0.8-1.3-1.7-2.3
	c-0.7,0.5-0.8,0.5-0.7,1.4c-0.7-0.3-0.8,0-1-0.4c-1,0.6-1.7,1.5-2.3,2.5L41.1,20l-1.4,0.2l0.7,0.5c-0.8,0.4-0.8-0.2-0.9,0.5l-1-0.5
	L38.4,20c0.5,0.2,1.1,0,1.4-0.5l0.3-0.2l-1.6-0.4l0.3-0.5c-1,0.5-0.4,0.9-2,1.3c0-0.5,0-0.2-0.3-0.7L35,19.7c0.5-1,0-0.8,0.4-2.2
	c-0.4,0.5-1.1,0.7-1.7,0.7l0-0.2c0.2-0.8,0.2-0.7,0.7-1.1c2.3,0.5,2-0.5,4.3-0.9c-0.7-0.7-1.2-0.3-1.6-1.6c1.3-0.5,2.6-1.2,3.6-2.2
	c0-1.3,0.7-1.8,0.7-3.1l0.3-0.4c0.5,0.8,0.4,1.1,1.2,1.6h0.2c0-0.4,0-0.7-0.2-1.1c0.7-0.5,1.8,0,2.4-1.1c0.2-0.3,0-0.2-0.2-1.1
	c1.6,0,0.6-1.7,1-2.5L46,4.3c-2,1-4.6,1.4-5.2,4.7h-0.5c0.6-0.9,1.3-2.7,0.5-3.4l0.7-0.2c0-0.4,0-0.2-0.3-0.7l1.2,0.2
	C42,4.1,41.7,4.3,41,4.3s-0.2-0.2-0.5,0.4h-0.2l0.3-1.1c-1,0.2-4.2,3.5-3.8,4.5l-1.6,0.4l-0.3,0.2c0.4,0.5,1,0.7,1.6,0.7
	c-0.8,0.8-1,0.3-2,0.4l0.3-2c-1.1,0.2-1.4,0-2,0.7h-0.2c0.2-1,0.2-0.5,0.7-1.1c-0.5-0.3-1-0.5-1.6-0.7l-0.2-0.4c0.4-0.6,1-1,1.7-1.1
	c0.1-0.9,0.5-1.8,1-2.5H33l0.2-0.5l0.7-1.6V0c-0.8,0.4-1.4,0.7-1.7,1.6h-1c0.3-0.4,0.3-0.2,0.5-0.9c-1.1,0.3-0.3,0.4-1.2,0
	c-0.7,0.8-1.1,1.8-1,2.9L29.2,4c-0.3,0.2-0.4,0-0.2,0.4c-0.5,0.3-0.4,0.2-0.3,0.5c-1.4,0.9-3.1,1.4-4.9,1.3L24,6.7l-1.6-0.5
	c0-0.4,0.1-0.8,0.2-1.3l0.5-0.5l-0.2,0.9C23.5,5,23.3,5,23.8,4.9c0-1.4,0.1-1.2,0.5-1.8l-1.2,0.2V3.1c0.4-0.6,0.6-0.6,0.9-1.4
	l-0.7-0.2L24,1.3l-0.6-0.5l-1,1.1c0.1-0.3,0.2-0.6,0.3-0.9l-1-0.9c0,0.7,0,0.6,0.2,1.3l-1.1-0.7c0,0.8,0,0.4-0.5,0.9l0.3,0.9H21V2
	c0.5-0.2,0.1,0,0-0.5l0.3-0.2l1,0.9c-1.1-0.1-0.9-0.1-1,0.7l-0.2,0.4c-0.5-0.3-1-0.7-1.4-1.3c-0.6,0.4-1.1,0.9-1.2,1.6
	c-1.3,0.2-2.5-0.4-3.3-1.4l-0.2,0.2l0.5,0.9c-0.7,0.6-0.5,0-0.7,0.7l-1.4-0.7L13,4.5L13.7,4l0.2,0.9h-1.2l2,1.6
	C15.2,6,15,6.2,15.9,6c0,0.5,0.2,1,0.5,1.4c-0.3,0.5-0.8,0.8-1.4,0.7l0.2,0.7c0.7-0.3,1.5-0.5,2.3-0.7l0.3,0.7
	c-0.8-0.3-0.4-0.2-1.2,0l-0.2,0.5v0.2c0.6-0.2,1.3-0.2,2-0.2c0.3,0.8,0.4,1.2,0.2,1.6c0.5,0.4,0.2,0.2,0.7,0.2l1.7,2.7l-0.5,0.5
	h-0.7l0.3-0.7L19.3,14l0.3,1.6c-0.4-0.3-0.4-0.5-1-0.7c0.4-0.4,0-0.1,0.5-0.2c-0.4-0.4-0.2-0.3-0.9-0.4c-0.3,0.7-0.2,0.2,0,0.9
	c-0.8,0-0.2-0.1-1.2,0.2l0.5-0.7l-0.3-0.4L16,15.1l0.3-0.5c-0.5,0.2-0.2,0-0.5,0.4c-0.4-0.6,0-0.9,0.5-1.6L16.2,13
	c-0.5,0.5-0.5,0.5-0.7,1.3c-1.2-0.4-2.3-0.5-2.4-2.2l-1.2,0.4l-0.5-1.6L9.2,12l0.7-0.9c-0.5-0.3-0.3-0.3-0.7-0.4V10l-0.3,0.2L9,10.9
	c-0.8,0.5-0.8,0-1,1.3c-0.6,0.1-0.7,0-1-0.5L6.3,12L7,12.4c-0.3,0.4-0.1,0,0,0.5c-0.8,0.7-1.6,0.6-2,1.4H4.5c2,2.6-1.8,1.8-3.1,1.3
	c-0.4,0.6-0.5,1.1-0.7,1.3l-0.3,0.5L0.9,18l0.5-0.4l-0.5,0.8l0.9,0.4c-0.2,0.5,0,0.5-0.5,0.9c0.3,0.8,0.5,0.7,1,0.5
	c0.6,0.5,0.5,0.5,0.3,1.3c0.5,0.3,0.5,0.1,0.9,0.5c0.8-0.2,0.6,0,0.7-0.5c0.6,0,1.1,0.3,1.6,0.7L4.5,22c-0.5,0.6-0.3,0.1-0.3,1.1
	l-2.6-1.3L0,22.5c0.2,0.8-0.3,1.3,0.7,1.8L0,25.4c1.3,1,2.4,0.9,4,2c-0.7,0.2-1.5,0.3-2.3,0.4V28c0.5,0.3,0.8,0.8,0.9,1.4h2v1.1
	c1,0,1.5,0.6,2.6,0.2v0.7c0.5,0.3,1.2,0.3,1.7,0L8.7,32l0.7-0.4L9.2,32c0.4,0.7,0.2,0.7,1,0.5c0,1,0,0.3,0.3,1.1
	c-0.1,0.2-0.2,0.5-0.2,0.7H9L9.4,34c-0.4-0.4,0-0.2-0.5-0.2H8.3c0.2-0.3,0.5-0.6,0.9-0.9H8.9c0,0-1.5,0.5-2.4,0.7
	c0.4,0.9,2.2,1.3,2.3,1.3c-0.3,0.4-0.6,0.8-1,1.1c-0.2-0.3-0.2-0.7-0.2-1.1c-0.8,0.8-0.4,2-1.7,1.8c-0.8,0.2-0.6,0-1.4-0.5H4.2
	l0.5,1.1l-1,0.4c-0.1,0.8-0.2,0.2,0.3,0.7l-2,1.8c0.4,0.5,1.1,0.7,1.7,0.5l-0.5,0.7l0.2,0.2c0.5,0,0.8,0.2,0.3,0.4
	c0.5,0.3,0.2,0.2,0.9,0.2c-0.7,0.6-0.8,0.2-1.7,0.5L3.1,42H3c-0.4,0.2-0.6,0.6-0.7,1.1c1.1,0,1.6,0,2,0.4L3.6,44v0.2l1-0.5l0.2,0.7
	l0.3-0.7v-0.4c1,1.2,0.4,2.2,2,2.5c0.4,0.3,0.8-0.1,1.4-0.5l-0.9,1.1v0.9l1.4-0.7h0.3l-0.7-0.4l0.2-0.7c0.6,0.3,1.3,0.5,2,0.5
	c0,0.6,0.2,0.1-0.2,0.5c0.8,0.8,2.5,0.7,4,1.2c-0.2-0.4-0.1-0.1-0.1-0.7l0.5,0.4v0.2l-0.3,0.2c0.8,0.2,1.5,0.7,1.9,1.5l0.7,0.7
	c-1.1,0-0.7,0-1.4,0c0,0.5,0,0.2-0.2,0.7l1.6,1.1V52c-0.5,0.3-0.6,0.2-1.2,0.2v0.7c1.3,0,1.3-0.4,2.4-0.9l0.5,0.7v0.2l-0.7,0.3l0,0
	l-0.5,0.2l-0.5,0.9l1.7-0.9c1.2,1.5,1,4.6,1.6,6c1.4,3.1,2.6,6.3,3.5,9.6c1.1,5.6-0.8,10.4-0.9,16c0.5,0.5,1.3,0.7,2,0.4
	c1.2-1,0.4-4.4,0.7-6.3c1.2-7.5-1.1-17.5,3.3-22c0.9-0.5,1.8-0.9,2.8-1l0.2-0.2c-0.3-0.2-0.5-0.4-0.7-0.7c0.7,0.2,1.2,0.2,1.4,0.4
	c1,0,1.5-0.6,0.5-0.9l0.5-0.2c-0.6-0.8-1.6-1.3-2.6-1.3l0.7-1.1c0.2-0.3,0.7-0.2,1.4-0.4L33,51l0.7-0.4c0.4,0,0,0-0.2-0.4l3-3.2
	l1.4-0.2V47L37,48.3c0.7-0.4,1.6-0.3,2.3,0.2l0.9-0.2L39.4,48c1.2-0.2,2.4-0.2,3.6-0.2c0.2-0.2,0.1,0,0.2,0.2c0.7,0.6,1.2-0.5,2-0.4
	l0.9-0.4l-2-0.5l0.2-0.9L42.5,46c0.7-0.4,1.6-0.7,2.4-0.7l0.2-0.7l-1-0.7l0.7,0.9l-1,0.2l0.7-0.2L43.6,44L43,45.1l-1.4-0.9
	c0.1-0.7,0-1.4-0.3-2c0.4-0.4,0.2-0.3,0.9-0.5c0.1-0.9-0.4-0.2,0.2-0.9l-0.9-0.4c-0.9-0.1-1.8-0.1-2.6,0.2c0.2-0.3,0.2-0.6,0.2-0.9
	c1.1,0.2,2.2,0.2,3.3,0L42,40.4l0.7-0.4v0.7c0.6,0.3,0,0.2,0.7,0l0.5,0.2l-1.2,0.7l-0.2,0.5l0.2,0.4c1.2-0.3,1.5-0.5,3.3-1.1v0.7
	c0.8-0.5,1.8-0.9,2.8-1.1c0-0.5,0-0.2-0.2-0.7c0.6-0.4,0.8-0.2,1-1.1l0.7,0.5c0.5-0.4-0.1-0.3,0.5-0.4c-0.6-0.9-1-0.6-1.2-1.3
	l-1.2,0.2l0.7,0.5l-1.4,0.5V39c-0.5-0.2-1.1-0.1-1.6,0.2L45.8,38l2.4-0.5c-0.4-0.6-0.3-0.4-1.4-0.4c0.7-0.5,2.3-0.5,3.1-0.5l0.4-0.9
	c-0.5-0.2-0.6-0.1-0.9-0.5l-0.3-0.2c1-0.1,2.1-0.2,3.1-0.4l0.2-0.4L52,34c-0.5,0.4-0.1,0.2-1.4,0.4l-0.2-0.5l1.6-1.3
	c-0.3-0.7,0-0.7-0.5-0.5l0.3-1.3c0.5-0.5,2.4,0.1,3.1-1.3c0.4-0.2,0.6-1.3,0.3-2.9C54.8,26.8,54.3,26.8,53.8,26.7z M48,24.2
	c-0.3-0.3-0.1,0-0.4-0.4L48,24.2z M43.7,19.3L43.7,19.3z M44.4,6l0.3,0.4l-0.3,0.4V6z M41.8,6.9L42,7.3h-0.3L41.8,6.9z M36.3,16.9
	L36.3,16.9z M39.9,6.9L39.9,6.9l0.3,0.4h-0.5L39.9,6.9z M38.7,7.6L39,7.4c0,0,0.1,0.2-0.3,0.4V7.6z M38.5,10.7h0.3l-0.2,0.5h-0.5
	L38.5,10.7z M37.7,13.9L37.7,13.9z M37.5,8.3L37.1,8L37.5,8.3z M36.1,10.7h0.7l0.3,0.4v0.4l-0.3,0.4c-1,0-0.5-0.3-1.4,0L36.1,10.7z
	 M36,15.5l0.2,0.4L35.6,16l-0.2-0.4C35.9,15.6,35.5,15.9,36,15.5z M34.7,12.8c0.2,0.2,0.4,0.3,0.5,0.5v0.2l-0.3,0.2
	C34.6,13.2,34.7,13.4,34.7,12.8z M34,16.2h0.3l-0.5,0.5l-0.2-0.4L34,16.2z M23.6,3.8L23.4,4l-0.3-0.5L23.6,3.8z M22.7,2.3L22.9,2
	h0.5v0.2l-0.5,0.4h-0.2V2.3z M22.4,2.5L22.4,2.5z M18.4,8.8l-0.5-0.2L18,8.1h0.4V8.8z M18.6,3.8l0.3,0.4C18.6,3.9,18.8,4.1,18.6,3.8
	L18.6,3.8z M0.9,17.7v-0.4C1,17.6,1,17.4,0.9,17.7z M2,18.8c0.2,0.3,0.2,0,0,0.4V18.8z M2,19.7v-0.4h0.3L2,19.7z M5,23.7L4.7,24
	c-0.2-0.4,0-0.6-0.2-1.6l0.3,0.2c0.4,0,0.2,0.1,0.9,0.4C5.4,23.6,5.7,23.3,5,23.7L5,23.7z M7,37l-0.2,0.4L6.6,37H7z M6.6,44.8v-0.4
	c-0.3-0.4,0,0-0.2-0.5L6.8,44l0.7-0.2l0.2,0.7L6.6,44.8z M7.8,44.8L8,44.4h0.2L7.8,44.8z M32.3,54.8L32,54.2
	c0.5,0.4,0.3,0.1,0.5,0.6L32.3,54.8z M44,46.5L44,46.5z M43.8,46.7l-0.3-0.4L43.8,46.7z M42.1,44.9l-0.3-0.2L42.1,44.9z M50.4,38.9
	L50,38.8L50.4,38.9z M48.4,40.5L48,40.2C48.4,40.5,48.2,40.2,48.4,40.5L48.4,40.5z M45,38.9L45,38.9z M43.9,32.9h0.5l0.3,0.5L44,34
	L43.9,32.9z M44.8,35.2v0.2c-0.9-0.3-0.4-0.1-0.7-0.7L44.8,35.2z M43.6,33.2l-0.3-0.2L43.6,33.2z M41,29.5l-0.3,0.4L40,29.4L41,29.5
	z M39.2,32l0.3,0.2l-0.3,0.5V32z M38.7,32.2L38.7,32.2z M38.2,41l0.3-0.5C38.8,41,38.5,40.8,38.2,41L38.2,41z M38.5,39.8l-0.3-0.2
	L38.5,39.8z M38,37.7l0.3,0.4L38,38.2V37.7z M36.8,43.1l1.2,0.5l-0.2,0.5L37,44h-0.3l-0.2-0.4L36.8,43.1z M36.4,42.4l0.2-0.5h0.2
	L36.4,42.4z M36.8,41.5l0.7,0.2L36.8,41.5z M37.3,40.2l0.5,0.4L37.3,40.2z M37.3,39.9l0.3,0.2L37.3,39.9z M37.3,28L37,27.8L37.3,28z
	 M36.8,33L36.8,33z M36.8,39.7l-0.2,0.5L35.8,40l-0.2-0.4l0.5-0.2L36.8,39.7z M34.8,43.7l-0.2-0.4H35L34.8,43.7z M35,43.8
	c0,0,0.1,0.2-0.3,0.4V44L35,43.8z M34,42.6v-0.9l0.7,0.2l0.2,0.4v0.2L34,42.6z M32.8,43.3v-0.2l0.3-0.2h0.5L32.8,43.3z M33.6,45.8
	l-0.2,0.5l-0.3-0.5H33.6z M31,45.8l0.3,0.2h0.7l-0.5,0.5h-1.2L31,45.8z M30.5,40.8l0.2-0.4h0.2L30.5,40.8z M31.2,44.9
	c0.1,0.4,0,0.2-0.2,0.5L31.2,44.9z M31,40.4L31,40.4z M29.8,31.5c0.3,0.3,0.1,0,0.3,0.4L29.8,31.5z M30.5,33.5l-0.3-0.4L30.5,33.5z
	 M30.2,33.7l-0.3-0.2L30.2,33.7z M30.2,35.7l0.2,0.4H30L30.2,35.7z M30.7,36.6h0.2c-0.3,0.3,0,0.4-0.5,0.2L30.7,36.6z M30.7,34.5
	l0.7-1.1l0.2,1.1l-0.3,0.2L30.7,34.5z M30.9,32l0.2-0.4l0.2,0.4H30.9z M31.2,38l1.2,0.2c-0.3,0.3-0.7,0.5-1,0.5l-0.3-0.2L31.2,38z
	 M32.1,34l-0.3,0.2v-0.7l0.5-0.5h0.5v0.2L32.1,34z M32.8,46.3l-0.3-0.4c0.3,0.1,0.1-0.1,0.3,0.3L32.8,46.3z M32.5,36.9v-0.4
	c0.1,0.2,0.1,0,0,0.3L32.5,36.9z M31.8,39.9l-0.3-0.2L31.8,39.9z M31.8,45.5l0.2-0.4h0.7c-0.4,0.2-0.3,0.1-0.9,0.3L31.8,45.5z
	 M32.8,47.3l-0.3-0.2L32.8,47.3z M32.6,46.6l0.5,0.4C32.6,46.7,32.9,46.9,32.6,46.6L32.6,46.6z M33.5,31.8l-0.3-0.4l0.9-0.7l0.7,0.2
	c-0.6,0.5-0.7,0.1-1.2,0.8V31.8z M34,34l0.7,0.4L34,34z M34.7,36.7l-0.2,0.2v-0.7L34.7,36.7z M34.4,46.1L34,46.4l0.2-0.4H34.4z
	 M34.4,41c0.5,0.2,0.2,0,0.5,0.4C34.4,41.2,34.7,41.5,34.4,41L34.4,41z M34.7,33l0.7-0.4l0.2,0.2H36l-0.2,0.5H35L34.7,33z M35,41.5
	l0.3,0.5H35V41.5z M35.2,34.3l0.5,0.2L35.2,34.3z M36.3,33.2l0.2-0.4h0.2L36.3,33.2z M36.1,31.2l0.3,0.4l-0.9,0.2v-0.5
	c0.4,0.4,0,0.3,0.5,0.2L36.1,31.2z M34.5,24.6c0.3,0.2,0.7,0.4,1,0.4l-1.7,0.9l-0.2-0.7L34.5,24.6z M33.1,15L33.1,15z M32.6,15.4
	c0.5,0.3,0,0.4,0.7,0.5l-0.2,0.5L32.5,16L32.6,15.4z M32.8,25.6c-0.3,0.9,0,0.5-1,0.5l0.5-0.7L32.8,25.6z M31.8,8.3l0.3,0.4
	L31.8,8.3z M32,7.6c-0.2,0.3-0.4,0.5-0.7,0.7L30.9,8l0.2-0.4L32,7.6z M31.7,3.6c-0.5-0.2-0.2,0-0.5-0.4l0.3,0.2V3.1h0.3L31.7,3.6z
	 M33.4,1.6l-0.6-0.3L33.4,1.6z M32.9,2.8c-0.1,0.2-0.3,0.4-0.5,0.5l0.2-0.5H32.9z M30.2,1.3h0.2L30,1.6L30.2,1.3z M30.7,1.8
	C31.4,2.1,31.3,2,32.5,2c-0.3,0.6,0,0.2-0.5,0.5c-0.5,0.1-1,0.2-1.6,0.2L30,2.2C30.7,2,30.4,2.2,30.7,1.8z M30.5,4h-0.3l0.2-0.4
	L30.5,4z M30.4,7.8h0.2c0,0.4-0.3,0.7-0.3,1.1c-0.4-0.4-0.2,0-0.3-0.7L30.4,7.8z M29.3,16.4l0.5,0.4V17l-0.7-0.2L29.3,16.4z
	 M28.6,37h0.5l-0.3,1.3v0.4h-0.2V37z M29.3,38.1c1.2,0.2,1.6,0.1,1.7,1.8l-0.3-0.4c-0.3,1-0.9,1.1-2,1.1l-0.2-0.4L29.3,38.1z
	 M29.3,43.7L29.3,43.7z M29.1,47.1l-0.3,0.7l-0.7-0.2l0.7-0.7L29.1,47.1z M28.6,45.3h-0.3l0.2-0.4L28.6,45.3z M28,44.5l0.3,0.2
	L28,44.5z M28,38.4l0.2,0.9C27.6,38.7,27.8,39.1,28,38.4L28,38.4z M27.8,40c-0.3-0.3-0.1,0-0.3-0.4L27.8,40z M28,5.6L27.8,6
	l-0.2-0.4H28z M27.6,37.1l0.4-0.5l0.2,0.7h-0.6V37.1z M28.1,37.9c-0.6,0.3-0.4,0.4-0.9,0H28.1z M24.3,19.5v-0.3l0.5,0.4l-0.2,0.2H24
	L24.3,19.5z M24.5,20.7l-0.3-0.2L24.5,20.7z M23.8,31.4l0.3,0.4l-0.3,0.2V31.4z M24.6,54.8v0.9h-0.2l-0.3-2L24.6,54.8z M23.9,44.8
	l0.2,0.9h-0.3L23.9,44.8z M22.7,6.4h0.2l-0.2,0.5V6.4z M23.4,12c-0.4,0.4-1,0.7-1.6,0.7L22,12c-0.4,0.1-0.2,0.1-0.7,0.5l0.3-1.1
	L23.4,12z M22.2,23.2L22,22.5l0.5,0.2L22.2,23.2z M22.6,40.9L22,41.4l-0.2-0.2l0.2-0.5l0.2,0.2H22.6z M23.3,35.3
	c-0.5,0.1-0.3,0.2-0.7-0.2L23.3,35.3z M22.7,23.3v-0.4c0.2,0.1,0.2-0.1,0,0.2L22.7,23.3z M22.7,21.5h-0.2l0.2-0.7h0.7L22.7,21.5z
	 M23.1,20.4c-0.5-0.2-0.2,0-0.5-0.4L23.1,20.4z M22.6,19.3l0.3,0.2L22.6,19.3z M22.2,14.6l-0.3-0.2L22.2,14.6z M22.4,11L22.4,11z
	 M21.9,2.3l-0.2,0.4l-0.2-0.4H21.9z M21.4,3.2h0.3L21.5,4h-0.2C21,3.4,21.3,4,21.4,3.2z M21.2,9.4c0.4,0.4,0.2,0,0.3,0.7l-1.4,0.5
	H20c0.2-0.3,0-0.1,0.3-0.4s0-0.2,0.5-0.2L21.2,9.4z M20.3,5.4h0.3c-0.3,0.4,0,0.1-0.5,0.4L20.3,5.4z M20.5,9.2
	c-0.1,0.2-0.3,0.4-0.5,0.5l0.2-0.5H20.5z M19.5,9.5L19.5,9.5z M20,5.2l-0.3-0.2L20,5.2z M20,11.2l1,0.4c-0.2,0.6-0.2,1.2,0,1.8
	C20.4,12.8,20,12,20,11.2L20,11.2z M21.7,17.2l0.3,0.4c-0.9,1.1-1.3,0-1.7,0.5l-0.2-0.9L21.7,17.2z M21.7,45.9L21.7,45.9z
	 M21.2,34.7H21l-0.2-0.9c0.4,0.2,0.3,0.2,0.4,0.8L21.2,34.7z M20.5,15.1c-0.4,0.3,0,0.3-0.5,0H20.5z M20.2,15.8l-0.3-0.2L20.2,15.8z
	 M19.6,17.9L19.6,17.9z M19.8,33.7l-0.4-0.5C19.8,33.5,19.6,33.2,19.8,33.7L19.8,33.7z M19.1,29.7L19.1,29.7z M18.7,15.3L18.7,15.3z
	 M19.1,31c-0.3-0.3-0.1,0-0.3-0.4L19.1,31z M18.6,33c0.6,0.3,0.5,0.1,0.7,0.9l-0.7-0.4V33z M17.9,31.2L17.3,31L17.9,31.2z
	 M18.6,34.6l-0.9,0.2V34c-0.2,0.1-0.5,0.2-0.7,0.2c-0.4,0.3-0.2,0-0.5-0.4l0.7-1.3v-0.2c-0.7,0.3-0.5,0.4-0.5,0.9
	c-0.5-0.4-0.6-0.6-0.7-1.4l0.5-0.2C17.6,32.3,18.4,33.4,18.6,34.6L18.6,34.6z M17.2,35.2c0.3,0.3,0.1,0,0.3,0.4L17.2,35.2z
	 M17.9,36.4l-0.3-0.5L17.9,36.4z M17.7,45.5h0.5L17.7,46l-0.2-0.2L17.7,45.5z M16.3,41h0.3v0.2H16l-0.2-0.9L16.3,41z M16,34.4V34
	h0.2L16,34.4z M16.3,27.2c0.3,0.3,0.1,0,0.3,0.4L16.3,27.2z M16.1,17.5l0.2-0.4h0.2l0.2,0.5h-0.5V17.5z M16.1,28.5l-0.3-0.4
	C16.1,28.4,16,28.1,16.1,28.5z M14.6,30.1L14.6,30.1z M13.7,27.4h0.2L14,28l-0.3,0.2L13.7,27.4z M14.4,28.5L14,28.3L14.4,28.5z
	 M13,13.7h0.2L13,14.3l-0.3-0.4L13,13.7z M13,26.9l-1-0.2l0.3-0.4l0.5,0.2L13,26.9z M12.2,15.3L12,14.8l0.9,0.7L12.2,15.3z
	 M12.3,13.2h0.2l-0.2,0.7h-0.5l-0.2-0.4L12.3,13.2z M11.3,13.5h0.2l-0.3,0.4L11.3,13.5z M10.8,14l-0.3-0.2L10.8,14z M8.7,12
	l-0.3-0.2L8.7,12z M9.2,20.8L8.9,20l0.5-0.4l0.3,0.2c0.5,0.5,1.3,0.5,2,0.9l-0.2-0.5h0.9v0.7c-0.6,0.2-0.3,0-1,0.5
	c-1.6-1.5-1.2-0.3-3-0.4l1.2,0.7V22l-0.7,0.4l-1.7-1.4c0.7-0.2,1.3-0.3,2-0.2L9.2,20.8z M11.2,25.2c-0.5,0.2-0.4-0.4-1.7-0.5v-0.8
	l2.3,0.4l0.2,0.5L11.2,25.2z M11.5,25.9V27l-0.3-0.2L11.5,25.9z M10.5,30.2l-0.2-0.4C10.6,30,10.3,30,10.5,30.2L10.5,30.2z
	 M10.3,26.6L10,26.8c-0.2-0.5-0.2-1.1,0-1.6c0.5,0.3,0.2,0,0.5,0.5C10.2,26,10.2,25.7,10.3,26.6L10.3,26.6z M11,27
	c-0.3-0.3-0.1,0-0.3-0.4L11,27z M9.6,25.2v0.5c-1,0-0.6,0.3-1-0.5c0.6,0.1,0.2,0.1,0.9-0.1L9.6,25.2z M8.8,23.2l-0.3-0.4l0.3-0.2H9
	L9.1,23L8.8,23.2z M8.3,22.3L8.3,22.3z M7.1,17.7l0.5-0.5v1.4H7.5L7.1,17.7z M7.8,15.3h0.3V16l-0.7,0.2C7.7,15.9,7.8,15.6,7.8,15.3z
	 M7.3,12.4l0.2,0.4H7.1L7.3,12.4z M7.3,13.3h0.2L7.1,14H6.9l-0.2-0.5L7.3,13.3z M6.6,16l0.3,0.4l-0.3,0.2V16z M3,19.1
	c0.2,0.1,0.4,0.3,0.5,0.5L3,19.1z M3.7,21.6l0.2-0.5l0.3,0.2L3.7,21.6z M4,19.5l0.3,0.2L4,19.5z M4.9,20l0.3,0.2L4.9,20z M6,23.4
	l0.3,0.4L6,23.4z M5.6,17.3c0.1-0.4,0-0.9-0.2-1.3c0.7,0.4,0.9,0.8,1.6,0.9C6.6,17.3,6.3,17.3,5.6,17.3z M6.9,24H6.4l0.9-0.9
	C7.3,23.5,7.2,23.4,6.9,24z M7.3,24.7H7.1V24c0.4-0.1,0.8-0.3,1.2-0.5c0.5,0.4,0.3,0.2,0.5,0.9c-0.7,0-0.4-0.3-0.7,0.5H8
	c-0.3-0.4,0-0.3-0.5-0.7L7.3,24.7z M7.6,31l0.2-0.4h0.5L7.6,31z M9.4,29.2h-1l0.2-0.7L9.4,29L9.4,29.2z M9.7,30.7L9.7,30.7z
	 M9.4,26.9l0.9,0.4C9.7,27.4,9.7,27.4,9.4,26.9L9.4,26.9z M9.5,35.5V36L9,36.2l-0.3-0.7L9.5,35.5z M9.5,44.6L9.5,44.6z M10.2,44.9
	H10V44c0.5,0.3,0.3,0.3,1,0.5C10.8,44.8,10.9,44.8,10.2,44.9L10.2,44.9z M11.1,40.9c0-0.4,0-0.2,0.2-0.7c-0.6,0.2-0.6,0.4-1,0.7
	l-0.9-1.1c-0.6-0.2-0.5-0.1-0.9-0.5l0.4-0.2l0.5,0.2c1.1-0.6,2,0.4,2.3,0.4C12.4,40,11.7,40.5,11.1,40.9L11.1,40.9z M10.8,33.5
	l0.3,0.4C10.8,33.7,11,33.9,10.8,33.5L10.8,33.5z M11.8,33.5l0.5,0.2L11.8,33.5z M12.7,46.3l0.2-0.3H13L12.7,46.3z M14.2,42.7h1
	C14.9,43.6,15,43.3,14.2,42.7L14.2,42.7z M14.4,32c-0.2,0.4-0.5,0.7-0.9,0.9c-0.6-0.8-1.5-1.3-2.4-1.3l0.5-0.4l-1.4-0.4
	c0.4-0.3,0.6-0.3,1.6-0.4l-0.2-0.9l0.5-0.4c0.9,0.3,0.6,0.5,1.4,0.2l0.2,0.2L13,30.7c0.7-0.5,0.4,0,1.4-0.4l1.6,2.8
	C14.8,32.7,15.9,32.5,14.4,32z M17.5,50.2l0.5,0.5L17.5,50.2z M18.7,48.4l-0.3-0.2c0.2,0.5,0,0.1,0.3,0.4c-0.1,0.5-0.2,0.9-0.5,1.3
	L15.6,47c0.9-0.1,0.5-0.3,0.9,0s0.2,0,0.2,0.5l0.7,0.4c0.3-0.4,0.1-0.3,0.3-0.9c-0.5-0.6,0-0.4-0.9-0.5l0.2-0.4
	c0.9,0.2,0.5-0.1,0.9,0.5l0.7-0.9h0.2c0,0.4,0,0.2-0.3,0.7v0.2l1.4,0.2l0.2,1.4l0.2,0.5C19.4,48.6,19.4,48.5,18.7,48.4L18.7,48.4z
	 M19.1,49.1v-0.5h0.2L19.1,49.1z M19.6,53.1c0.2-0.8-0.1-0.4,0.5-0.7v-0.4c0.4,0.3,0.1,0,0.3,0.5v0.2l-0.7,0.5L19.6,53.1z
	 M20.1,54.8v-1.4l0.5,0.2H21v1.6L20.1,54.8z M20.6,52.1H21v0.7L20.6,52.1z M21,57.3L21,57.3z M20.8,56.7c0-0.7,0-0.2,0.2-0.7h0.2
	L20.8,56.7z M21.4,42c-0.7-0.3-0.3,0-0.5-0.9H21l0.3,0.4V42z M21.9,47.6l-0.3-0.4C21.9,47.5,21.6,47.3,21.9,47.6L21.9,47.6z
	 M21.7,52.8c0.6,0,0.3,0.2,0.7-0.2h0.7l0.2,0.9l-1.4,0.4h-0.2L21.7,52.8z M21.9,57v-1c0.6-0.4,0.7-0.5,1.4-0.4l0.2-0.2
	c-0.1-0.9-0.3-0.8-0.3-1.4c0.8,0.4,0.8,1,1,1.8l-2,1.1L21.9,57z M23.4,59.3c-0.3,0.4,0,0.2-0.7,0.4v-0.2l0.3-0.2H23.4z M24.7,66.3
	h-0.3l-1.7-5.6l0.5-0.7l0.5,0.2c0,0.5,0,0.2-0.2,0.7l1,0.2l0.5-0.2C24.9,62.8,24.8,64.6,24.7,66.3L24.7,66.3z M24.7,52.3v-0.5
	l0.3,0.5H24.7z M24.8,51.4L24.8,51.4z M25,46.9L25,46.9z M25,46.4l-0.5,0.2c-0.1-0.7-0.1-1.5,0.2-2.2l0.5,1.4L25,46.4z M25,16.4
	l0.3,0.2L25,16.4z M25.5,45.6l0.2-1.1C25.9,45.1,25.9,45.2,25.5,45.6L25.5,45.6z M25.7,9.7l0.7,0.2C25.8,10.3,26,10.4,25.7,9.7
	L25.7,9.7z M26,52l0.2,1.4l-0.3,0.2L26,52z M26.2,57.4v-2.6l0.2,2.5L26.2,57.4z M26,50.9v-0.5h0.3L26,50.9z M26.5,46.2L26.5,46.2z
	 M26,27.4l0.2-0.4h0.2l0.2,0.4H26z M25.7,9.6L25,8.5l0.7-0.4l0.9,0.7L25.7,9.6z M26.7,34L26.7,34z M26.2,6.7h0.5
	C26.3,7,26.7,6.9,26.2,6.7z M27.4,44.2l-0.2,0.5l-0.2-0.9L27.4,44.2z M28.8,55.5l-0.3-0.4l0.7-0.5l0.3,0.5
	C29,55.4,29.2,55.1,28.8,55.5L28.8,55.5z M30,55.7l-0.2-0.4l0.2-0.2l0.3,0.2L30,55.7z M30.9,55.4h0.2l0.2,0.5
	C30.9,55.6,31.1,56,30.9,55.4L30.9,55.4z M31.4,54.5L31.4,54.5z M31.6,51.1l0.1,0.3L31.6,51.1c-0.2,0.7-0.4,1.4-0.6,1.9
	c-0.8,0.3-2.1,0.1-2.8,0.5s0.5,2-0.9,2.5c0.7,0.5,0.9,0.2,1.4-0.4l0.2,0.4L28,58l-0.7,0.2c-0.1-2.3,0.1-4.7,0.7-7
	c0.3,0.2,0.6,0.4,0.9,0.7l1,0.2c-0.3-0.6-0.9-1.1-1.6-1.1v-0.2l1.7-1.1l-0.2,0.5l0.9,0.5c0-0.5,0-0.2-0.2-0.7h0.9l-0.2-0.7
	c-0.7,0-0.3-0.2-0.7,0.2h-0.2c0-1,0-1-1.2-0.9v-0.2c0.4-0.5,0.3-0.5,1.2-0.5c-0.3-0.3-0.2-0.2-0.9-0.4l1.6-0.5
	c0.7,0.4,0.8,0.6,1.6,0.5C32.5,48,32,49.7,31.6,51.1L31.6,51.1z M32.6,50.5v-0.9l0.9-0.2c0.2-0.6-0.4-1.6,0.2-2.7
	c0.5,0.4,0.3,0.2,0.3,0.7l1.7-0.2C34.9,48.5,33.9,49.6,32.6,50.5L32.6,50.5z M35.4,43.8l0.2-0.4l0.2,0.4H35.4z M35.7,42l0.2-0.4h0.3
	C36,42,36.3,41.8,35.7,42L35.7,42z M36.8,45.4c-0.3-0.4-0.3-0.1-0.5-0.7c0.6,0.3,0.4,0.2,1,0.2L36.8,45.4z M37.5,46.5l0.2-0.4
	l0.7,0.2L37.5,46.5z M38.7,44.5L38,44.4l0.7-0.7H39C39,44.6,39.3,44,38.7,44.5L38.7,44.5z M40.3,45.2c-0.6,0-0.2,0-0.7,0.2v-0.4
	l-0.3-0.2c0.7,0,0.4,0.2,0.9-0.4h0.2V45.2z M41.1,40.7c-0.5,0.2,0,0.3-0.5,0H41.1z M41.1,41.5h0.2c-0.4,0.8-0.5,0.5-0.2,1.3
	c-0.8,0-0.7,0-1,0.7h-1.2C39.5,42.8,40.3,42.3,41.1,41.5L41.1,41.5z M40.4,38.8l-1.6,0.5l-0.2-0.2c0.4-0.7,0.6,0,0.3-0.7l0.7-0.2
	l0.7,0.4V38.8z M40,32.3l0.3,0.2L40,32.3z M40.3,31.2c-0.3,0.2-0.2-0.2-0.5-0.7l0.3-0.2l0.3,0.2c0.6,0,0.4,0.3,1.2,0.5l-0.9,0.7
	C40.5,31.3,40.7,32,40.3,31.2L40.3,31.2z M41.6,36.4l0.5,0.2L41.6,36.4z M41.7,31.4l0.5,0.4L41.7,31.4z M43,39h0.5
	C43.2,39.2,43.3,39.4,43,39L43,39z M43,37.2L42.6,37l-0.3-0.5l0.3-0.2c0.9,0.5,1,0.4,2,0.4C44.2,37,43.6,37.2,43,37.2L43,37.2z
	 M44.7,39.2L44.4,39L44.7,39.2z M44.9,40.6h-0.7c0.3-0.4,0.1-0.2-0.3-0.4c0.3-0.6,0.5-0.4,1-0.7h0.2L44.9,40.6z M48.9,34.1l-0.2,0.4
	L48.6,34L48.9,34.1z M48.7,34.7l0.2,0.4h-0.3L48.7,34.7z M48.2,31.2c0.1,0.4,0,0.2-0.2,0.5L48.2,31.2z M48.4,34.3L48,34L48.4,34.3z
	 M47.3,30.7l0.5,1.1l-0.3,0.4L47,32C47.2,31,47.2,31.7,47.3,30.7L47.3,30.7z M48,34.8l-0.9,0.4v-0.4H48z M46.8,30.5L46.8,30.5z
	 M46.4,32.8l-0.2-0.4h0.3L46.4,32.8z M46.8,31.7H47l0.2,0.5C46.7,32,46.9,32.3,46.8,31.7L46.8,31.7z M47,36.6l0.2-0.4h0.2L47,36.6z
	 M49.6,35.7L49.6,35.7z M49.4,36.3c-0.5,0-0.5,0-1,0.2L48,36.2l0.9-0.9L49.4,36.3z M49,31.4l0.3,0.5L49,31.4z M49.7,28.5l0.9,0.2
	l-0.9,0.5V28.5z M49.9,29.8l0.3,0.2L49.9,29.8z M51,29.6c-0.2-0.1-0.4-0.3-0.5-0.5H51V29.6z M51.5,29.9l0.3,0.4L51.5,29.9z
	 M54.6,27.6L54,27.4L54.6,27.6z M53.4,30.1L53.4,30.1z M52.9,28.7l0.2-0.4h0.5L52.9,28.7z M54.1,28.3l-0.3-0.2L54.1,28.3z M54,30
	l-0.2-0.5l0.5,0.2L54,30z M54.3,29.3l0.3,0.2L54.3,29.3z M54.5,28.2l0.3,0.4C54.5,28.2,54.7,28.5,54.5,28.2L54.5,28.2z"/>
<path d="M223.1,49.6c0-0.9,0.4-1.4,1.2-1.4c0.8,0,1.2,0.5,1.2,1.4v2.9l9.2-0.4c0.7,0,1.1,0.4,1.1,1.2c0.1,0.5-0.3,1-0.8,1.1
	c-0.1,0-0.2,0-0.3,0l-9.2,0.3v5.1l9.2-0.4c0.7,0,1.1,0.4,1.1,1.2c0.1,0.5-0.3,1-0.8,1.1c-0.1,0-0.2,0-0.3,0l-9,0.3v7.5
	c3.4,1.5,6.5,3.3,9.4,5.5c0.6,0.5,0.7,1.4,0.2,2c0,0,0,0,0,0c-0.6,0.5-1.4,0.5-2,0c-2.4-1.8-5-3.5-7.6-5c-0.1,2.1-1,4.1-2.6,5.5
	c-1.9,1.3-4.2,2-6.6,1.8c-2.3,0.2-4.6-0.5-6.4-2c-1.2-1-1.9-2.5-2-4.1c0-1.7,0.7-3.3,2-4.4c1.7-1.3,3.8-1.9,5.9-1.8
	c2.5,0.1,5,0.7,7.3,1.6V62l-7.5,0.1H208c-0.8,0-1.2-0.4-1.2-1.1c0-0.7,0.4-1.1,1.2-1h7.5l7.5-0.1v-5l-7.5,0.1H208
	c-0.8,0-1.2-0.4-1.2-1.1s0.4-1.1,1.2-1.1h7.5l7.5-0.1L223.1,49.6z M184.5,50.4c-0.8-0.3-1.1-0.8-1-1.5c0.2-0.7,0.7-0.9,1.6-0.5
	c2.2,0.7,4.4,1.5,6.4,2.5c0.9,0.5,1.2,1.1,0.8,2s-1,1-2,0.4C188.5,52.1,186.5,51.2,184.5,50.4L184.5,50.4z M175.3,49.7
	c0.1-0.9,0.5-1.3,1.4-1.2c0.7,0.1,1.1,0.8,1,1.4c0,0,0,0.1,0,0.1c-0.3,2.3-0.9,4.6-1.6,6.9v21.4c0,0.9-0.4,1.4-1.2,1.4
	c-0.8,0-1.2-0.5-1.2-1.4v-16c-0.5,0.7-1,1.4-1.5,2c-0.4,0.4-1,0.6-1.5,0.3c-0.4-0.3-0.6-0.9-0.3-1.4C173,59.1,174.7,54.5,175.3,49.7
	L175.3,49.7z M464,50.7c0.2-0.7,0.9-1.1,1.6-1c0.7,0.2,1.1,0.9,1,1.6c-1.1,3.9-2.6,7.8-4.2,11.5c-1.7,3.9-3.7,7.9-6,12
	c4.2,0,7.9-0.1,11-0.4c3.7-0.3,7.3-0.7,10.8-1.2c-1.8-4.4-3.8-8.7-6.1-12.8c-0.4-0.6-0.3-1.4,0.3-1.8c0.6-0.4,1.4-0.2,1.8,0.4
	c1.8,3,3.5,6.1,4.9,9.3c1.4,2.7,2.5,5.6,3.3,8.5c0.3,0.7-0.1,1.5-0.8,1.7c0,0-0.1,0-0.1,0c-0.7,0.2-1.5-0.2-1.7-0.9
	c0-0.1,0-0.1,0-0.2l-0.7-2.3c-4.8,0.8-9.5,1.4-14,1.8c-4,0.3-8,0.4-12,0.4c-0.9,0-1.4-0.4-1.4-1.2c0-0.8,0.5-1.2,1.4-1.2h1.1
	c2.1-3.8,3.9-7.7,5.6-11.6C461.3,59.2,462.8,55,464,50.7L464,50.7z M334.7,51.2c0-1,0.4-1.5,1.2-1.5s1.2,0.5,1.2,1.5v12.6
	c0.3,3.9-0.9,7.8-3.4,10.8c-2.4,2.6-6.4,4.1-12,4.7c-0.6,0.2-1.2-0.2-1.3-0.8c0,0,0,0,0,0c-0.1-0.6,0.3-1.1,0.9-1.2c0,0,0,0,0.1,0
	c4.9-0.7,8.4-2.1,10.5-4.2c2.1-2.1,3.1-5.2,2.9-9.2L334.7,51.2L334.7,51.2z M243.1,51.7c0.2-0.9,0.6-1.3,1.4-1.2s1.1,0.5,1.2,1.4
	l-0.7,5.1c-0.4,2.6-0.6,5.2-0.7,7.8c0,1.5,0.1,2.9,0.3,4.4c0,2,0.7,4,2,5.6c0.4,0.5,1.1,0.6,1.5,0.2c0,0,0.1-0.1,0.1-0.1
	c1.5-1.5,2.8-4.8,4.1-9.9c0.2-0.5,0.7-0.8,1.2-0.7l0,0c0.6,0.2,0.9,0.6,0.7,1.4l-0.1,0.7c-0.6,3.2-1.7,6.2-3.3,9
	c-1.1,1.8-2.3,2.7-3.4,2.7s-2.3-1-3.5-3.1c-1.4-3.3-2-6.8-1.8-10.4c0-2,0.1-4.3,0.3-6.8C242.7,55.5,242.9,53.5,243.1,51.7
	L243.1,51.7z M315.3,51.8c-0.1-0.7,0.4-1.3,1.1-1.4c0.7-0.1,1.3,0.4,1.4,1.1c0,0.1,0,0.2,0,0.3v14.9c-0.1,0.7-0.7,1.2-1.4,1.1
	c-0.6-0.1-1-0.5-1.1-1.1V51.8z M262.3,52.6c-0.3-0.5-0.1-1.2,0.4-1.5c0,0,0,0,0,0c0.5-0.3,1.1-0.2,1.5,0.3c2.4,3.1,4.2,6.6,5.2,10.4
	c1.1,4,1.6,8.2,1.5,12.3c0,0.8-0.7,1.5-1.5,1.5c-0.8,0-1.5-0.7-1.5-1.5c0.1-4-0.3-8.1-1.2-12C265.7,58.8,264.2,55.6,262.3,52.6
	L262.3,52.6z M370.4,51c1.4-0.1,2.8,0.3,3.8,1.1c0.6,0.9,0.9,1.9,0.8,3c-0.4,6.1-3.1,11.9-7.4,16.3c-4.7,4.3-10.7,6.9-17,7.3
	c-0.8,0-1.3-0.3-1.4-1c-0.1-0.6,0.3-1.1,0.9-1.2c0,0,0,0,0.1,0c5.7-0.5,11.1-2.8,15.3-6.7c3.8-4,6.2-9.2,6.6-14.7
	c0-0.9-0.7-1.6-1.5-1.6c-0.1,0-0.2,0-0.2,0h-22.6c-0.7,0-1.1-0.4-1.1-1.2s0.4-1.2,1.1-1.2L370.4,51z M293.1,51.5
	c3.9-0.2,7.7,1.3,10.5,4c2.3,2.6,3.5,6.1,3.4,9.6c0.2,3.4-1,6.7-3.3,9.2c-2.8,2.4-6.4,3.8-10.1,3.7c-0.6,0-1.1-0.5-1.1-1.1
	c0-0.6,0.5-1.1,1.1-1.1c3.2,0.1,6.2-1.1,8.5-3.3c1.6-2.1,2.4-4.7,2.3-7.4c0.1-3.1-0.9-6-2.9-8.4c-2.3-2.2-5.4-3.3-8.6-3.1
	c-0.5,3.8-1.2,7.6-2.2,11.4c-0.7,3.2-1.9,6.3-3.7,9c-0.9,1.5-2.6,2.4-4.4,2.5c-1.6,0-3.2-0.8-4.2-2c-1.5-1.9-2.4-4.3-2.3-6.7
	c-0.1-4.6,1.9-9,5.3-12C284.7,53,288.9,51.5,293.1,51.5L293.1,51.5z M290.6,53.7c-3.2,0.5-6.2,2-8.5,4.3c-2.4,2.7-3.7,6.1-3.7,9.7
	c0,1.6,0.4,3.3,1.2,4.7c0.6,1.1,1.8,1.7,3,1.8c1.1,0,2.1-0.6,2.7-1.5c1.3-2,2.2-4.2,2.7-6.4C289.3,62.1,290.1,57.9,290.6,53.7
	L290.6,53.7z M200.5,54.4c0.7,0,1.1,0.3,1.1,1c0,0.6-0.4,1-1.1,1h-9.7v8.6h8.6c0.7,0,1.1,0.3,1.1,1s-0.4,1-1.1,1h-8.6v10h10
	c0.7,0,1.1,0.3,1.1,1s-0.4,1-1.1,1h-22c-0.7,0-1.1-0.3-1.1-1s0.4-1,1.1-1h9.6v-10H180c-0.7,0-1.1-0.3-1.1-1c0-0.6,0.4-1,1.1-1h8.4
	v-8.6h-9.1c-0.7,0-1.1-0.3-1.1-1s0.4-1,1.1-1H200.5z M400.8,57.1c-0.1-0.7,0.4-1.3,1.1-1.4c0.7-0.1,1.3,0.4,1.4,1.1
	c0,0.1,0,0.2,0,0.3v2.7h3.3c0.8,0,1.2,0.4,1.2,1.1c0,0.7-0.4,1.1-1.2,1.1h-3.3v14.8c0,1.5-0.9,2.3-2.6,2.3c-0.7,0-1.3-0.1-2-0.3
	c-1.2-0.3-2.3-0.6-3.4-1.1c-0.4-0.3-0.6-0.8-0.4-1.2c0.2-0.5,0.6-0.7,1.2-0.5c1.2,0.4,2.4,0.7,3.7,0.8c0.7,0,1.1-0.3,1.1-1v-13
	c-3.7,5.9-8.9,10.7-15.1,13.8c-0.5,0.2-1.1,0-1.4-0.4c-0.3-0.5-0.1-1.2,0.4-1.5c0,0,0,0,0,0c5.6-3,10.4-7.4,13.8-12.8h-12.9
	c-0.8,0-1.2-0.4-1.2-1.1c0-0.7,0.4-1.1,1.2-1.1h15.1L400.8,57.1z M444.7,62.6c1,0,1.5,0.5,1.5,1.4c0,0.9-0.5,1.4-1.5,1.4h-19.6
	c-1.5,0-3.1-0.2-4.5-0.7l-2-0.7c-0.6-0.3-0.9-1-0.7-1.6c0.3-0.8,0.8-1.1,1.5-1l2,0.7c1.2,0.4,2.5,0.6,3.8,0.5L444.7,62.6z
	 M215.7,68.8c-1.3,0-2.6,0.4-3.7,1.1c-1,0.6-1.6,1.7-1.6,2.9c0,1.3,0.6,2.5,1.6,3.2c1.5,0.9,3.2,1.4,4.9,1.2
	c1.8,0.1,3.5-0.5,4.8-1.6c1.1-1.3,1.7-3.1,1.5-4.8C220.9,69.6,218.3,69,215.7,68.8L215.7,68.8z"/>
<path class="st10" d="M26,145.6c-0.4,4.3-1.1,8.6-2.1,12.9c-0.7,3.6-1.8,7.1-3.2,10.5l-8.4-1.7c2.3-7.2,3.8-14.7,4.4-22.2L26,145.6z
	 M39.5,173.6H28.2v-31.2c-5.9,0.5-10.5,0.8-13.8,0.9l-1.1-8.1c1.5,0,3.8,0,7-0.1c2.1-2.2,4.1-4.4,6-6.6c-3.8-3.7-8.2-7.7-13.3-12
	l6.7-6.2l1.7,1.4c2.9-3.6,5.5-7.6,7.7-11.7l9.8,3.2c-3.4,5-7.1,9.8-11.1,14.2l4.3,4c3.4-4,6.4-8.4,9.1-12.9l9.8,3.8
	c-5.8,7.8-12.2,15.3-18.9,22.4l10-0.6c-0.7-2-1.5-4-2.4-6l8.7-2.2c1.5,3.7,3.4,8.8,5.6,15.4l-8.8,2c-0.2-0.9-0.4-1.7-0.7-2.5
	l-4.9,0.6L39.5,173.6z M52.6,161.7l-8.7,1c-1.6-8.5-2.5-14-2.6-16.6l8.2-1C49.6,146.2,50.6,151.7,52.6,161.7L52.6,161.7z
	 M82.3,168.8h-14v4H56v-49.1h-6.2v-8.8H56v-13.1h12.2v13.1h14v-13.1h12.2v13.1h6.2v8.8h-6.2v49.1H82.3V168.8z M68.3,123.7v12.6h14
	v-12.6L68.3,123.7z M68.3,160.1h14v-15.4h-14V160.1z"/>
<path class="st10" d="M152.2,168.7c-3.1,0.6-10.2,1.3-21.4,2.2c-11.2,0.9-19.3,1.4-24.4,1.6l-1.2-9.3c2.5,0,8.6-0.3,18.3-0.9v-6.2
	h-16.9v-8h16.9v-6.3h-15.1v-38.7h42v38.7H135v6.2h16.5v8H135v5.4c9.7-0.7,15.4-1.2,17.3-1.5V168.7z M118.7,119.1h5.1v-7.9h-5.1
	V119.1z M123.9,126.3h-5.1v7.7h5.1V126.3z M134.6,119.1h5.3v-7.9h-5.3L134.6,119.1z M139.9,126.3h-5.3v7.7h5.3L139.9,126.3z
	 M194.9,128.8c-2.1,10.6-5,18.3-8.9,23.2l-8.9-2.6c1.1-2.1,2.1-4.3,2.9-6.5c0.9-2.1,1.5-4.3,2-6.6h-5.2v29c0,2.3-1,4.4-2.8,5.8
	c-2,1.6-4.5,2.4-7.1,2.3h-11.1l-1.5-9.5h7.8c0.6,0,1.3-0.2,1.8-0.6c0.5-0.3,0.8-0.8,0.8-1.4v-25.6h-12v-8.8h14.7l-13.2-8.5l7.3-6.9
	c3.3,1.8,6.6,3.8,9.8,5.8c2.2-1.9,4.3-3.9,6.2-6h-24.6v-8.6h36.8l4.4,3.9c-2.7,4.9-7.7,10.2-15,16c1.1,0.8,2.2,1.6,3.2,2.6l-2.7,1.7
	h13.2L194.9,128.8z"/>
<path class="st10" d="M284.7,170.5H200v-10h35.1v-43.6h-31.6v-9.7h77.7v9.7h-32.7v43.6h36.1L284.7,170.5z"/>
<path class="st10" d="M318.7,166.4c-0.1,2-1.2,3.8-3,4.7c-2.2,1.4-4.7,2.1-7.2,2h-10.7l-1.2-9.6h8.2c1.7,0,2.5-0.7,2.5-2.1v-11.3
	c-2.8,4.2-6,8.1-9.7,11.5l-7.8-6.2c6.3-6.2,11.5-13.5,15.4-21.4h-12.6v-8h14c-2.5-2-6.2-4.8-11-8.4l7.7-6.4l8.7,6.2
	c2.5-2,4.9-4.1,7.2-6.4h-24.4v-8H330l4.8,4.6c-4.5,5.7-9.8,10.8-15.8,15c1.4,1,2.7,2.1,4,3.3h9.7l3,2.3c-0.3,0.9-0.8,2-1.4,3.5
	c4.5-1.1,8.9-2.6,13.1-4.5c-2.4-2-4.5-4.4-6.4-6.9c-1.8,1.9-3.7,3.8-5.8,5.5l-7.5-4.8c6.3-5.5,11.1-12.6,13.8-20.5l11,1.5
	c-0.6,1.9-1.3,3.7-2.2,5.4h28.4v7.8H374c-1.9,4.6-4.9,8.6-8.7,11.8c5,1.8,10.2,3.1,15.4,4l-6,8.6c-6.3-1.6-12.5-3.8-18.5-6.5
	c-3.8,1.8-7.8,3.3-11.9,4.4h10c0,2.4,0,4.2,0,5.5h20.4c0,6.2-0.2,11.2-0.5,15.1c-0.1,2.9-0.6,5.8-1.5,8.6c-0.8,1.9-2.2,3.5-4,4.4
	c-2.4,1.2-5,1.7-7.7,1.6h-10.7l-1.6-8.7h9.1c1.6,0.1,3-0.7,3.8-2.1c0.8-1.4,1.2-5,1.2-10.8h-9.6c-1.4,5.3-4.3,10.1-8.4,13.7
	c-4.8,4.3-10.6,7.3-16.9,8.9l-5.5-8.1c4.4-1.2,8.5-3.2,12-6c2.9-2.2,5.2-5.1,6.6-8.4h-11.9v-8h13.2c0-1.1,0-2.8,0-4.9
	c-1.9,0.5-3.9,1-5.8,1.5l-3.2-6c-1.8,4.6-4.2,8.9-7.1,12.8l-7.5-2.8c1.1-2.3,2.6-5.6,4.4-9.9h-4.6L318.7,166.4z M356,122.3
	c2.5-2,4.6-4.4,6.3-7h-13.8C350.5,118,353.1,120.4,356,122.3z"/>
<path class="st10" d="M453.5,170.2h-35.2v3h-12.5v-31.1h21.6v-23.2h-24v9.4c0.1,9.1-1,18.2-3.2,27c-1.5,6.7-4.5,12.9-8.7,18.3
	l-9.3-5.2c2.9-4.8,5-10,6.2-15.5c1.8-7.4,2.7-15,2.7-22.6V110h34v-8.2h12.8v8.2h34v8.9h-31.3v7.1h29.6v8.6h-29.6v7.5h25.6v31h-12.6
	V170.2z M418.3,161.8h35.2v-11.6h-35.2L418.3,161.8z"/>
</svg>
