<?xml version="1.0" encoding="UTF-8" standalone="no"?>
<!DOCTYPE svg PUBLIC "-//W3C//DTD SVG 1.1//EN" "http://www.w3.org/Graphics/SVG/1.1/DTD/svg11.dtd">
<svg width="100%" height="100%" viewBox="0 0 10 10" version="1.1" xmlns="http://www.w3.org/2000/svg" xmlns:xlink="http://www.w3.org/1999/xlink" xml:space="preserve" xmlns:serif="http://www.serif.com/" style="fill-rule:evenodd;clip-rule:evenodd;stroke-linejoin:round;stroke-miterlimit:2;">
    <path d="M8.438,6.25L7.813,6.25C7.73,6.25 7.65,6.283 7.592,6.342C7.533,6.4 7.5,6.48 7.5,6.563L7.5,8.75L1.25,8.75L1.25,2.5L4.063,2.5C4.145,2.5 4.225,2.467 4.283,2.408C4.342,2.35 4.375,2.27 4.375,2.188L4.375,1.563C4.375,1.48 4.342,1.4 4.283,1.342C4.225,1.283 4.145,1.25 4.063,1.25L0.938,1.25C0.689,1.25 0.45,1.349 0.275,1.525C0.099,1.7 0,1.939 0,2.188L0,9.063C0,9.311 0.099,9.55 0.275,9.725C0.45,9.901 0.689,10 0.938,10L7.813,10C8.061,10 8.3,9.901 8.475,9.725C8.651,9.55 8.75,9.311 8.75,9.063L8.75,6.563C8.75,6.48 8.717,6.4 8.658,6.342C8.6,6.283 8.52,6.25 8.438,6.25ZM9.531,0L7.031,0C6.614,0 6.405,0.506 6.699,0.801L7.397,1.499L2.637,6.257C2.593,6.301 2.558,6.353 2.535,6.41C2.511,6.466 2.499,6.528 2.499,6.589C2.499,6.651 2.511,6.712 2.535,6.769C2.558,6.826 2.593,6.878 2.637,6.921L3.079,7.363C3.123,7.407 3.175,7.442 3.232,7.465C3.289,7.489 3.35,7.501 3.412,7.501C3.473,7.501 3.534,7.489 3.591,7.465C3.648,7.442 3.7,7.407 3.744,7.363L8.502,2.604L9.199,3.301C9.492,3.594 10,3.389 10,2.969L10,0.469C10,0.344 9.951,0.225 9.863,0.137C9.775,0.049 9.656,0 9.531,0Z" style="fill-rule:nonzero;"/>
</svg>
